/* XPM */
static const char *tbGlows[] = {
"45 15 256 3",
"000 c black",
"001 c #030202",
"002 c gray1",
"003 c #060606",
"004 c #090909",
"005 c #0A0909",
"006 c #0D0D0C",
"007 c gray5",
"008 c #10100F",
"009 c #11100F",
"010 c #141312",
"011 c #171615",
"012 c #171715",
"013 c #171716",
"014 c #1B1919",
"015 c #1A1A19",
"016 c #1B1A19",
"017 c #1D1D1B",
"018 c #1D1D1C",
"019 c #1E1D1C",
"020 c #20201F",
"021 c #21201F",
"022 c #242322",
"023 c #272725",
"024 c #272726",
"025 c #353332",
"026 c #353432",
"027 c #383735",
"028 c #3B3A38",
"029 c #494744",
"030 c #4C4B48",
"031 c #52514E",
"032 c #53514E",
"033 c #565451",
"034 c #595854",
"035 c #5D5B57",
"036 c #605E5A",
"037 c #63615E",
"038 c #63625E",
"039 c #64615E",
"040 c #676461",
"041 c #676561",
"042 c #6A6864",
"043 c #6D6B67",
"044 c #716E6A",
"045 c #74726D",
"046 c #7B7874",
"047 c #7E7B77",
"048 c #817F7A",
"049 c #85827D",
"050 c #888580",
"051 c #8B8983",
"052 c #8F8C86",
"053 c #928F8A",
"054 c #95928D",
"055 c #989690",
"056 c #9C9993",
"057 c #9F9C96",
"058 c #A9A6A0",
"059 c #ACA9A3",
"060 c #B0ACA6",
"061 c #B3B0A9",
"062 c #B6B3AC",
"063 c #BAB6AF",
"064 c #C0BDB5",
"065 c #C4C0B9",
"066 c #C7C3BC",
"067 c #CECAC2",
"068 c #D1CDC5",
"069 c #D4D0C8",
"070 c black",
"071 c black",
"072 c black",
"073 c black",
"074 c black",
"075 c black",
"076 c black",
"077 c black",
"078 c black",
"079 c black",
"080 c black",
"081 c black",
"082 c black",
"083 c black",
"084 c black",
"085 c black",
"086 c black",
"087 c black",
"088 c black",
"089 c black",
"090 c black",
"091 c black",
"092 c black",
"093 c black",
"094 c black",
"095 c black",
"096 c black",
"097 c black",
"098 c black",
"099 c black",
"100 c black",
"101 c black",
"102 c black",
"103 c black",
"104 c black",
"105 c black",
"106 c black",
"107 c black",
"108 c black",
"109 c black",
"110 c black",
"111 c black",
"112 c black",
"113 c black",
"114 c black",
"115 c black",
"116 c black",
"117 c black",
"118 c black",
"119 c black",
"120 c black",
"121 c black",
"122 c black",
"123 c black",
"124 c black",
"125 c black",
"126 c black",
"127 c black",
"128 c black",
"129 c black",
"130 c black",
"131 c black",
"132 c black",
"133 c black",
"134 c black",
"135 c black",
"136 c black",
"137 c black",
"138 c black",
"139 c black",
"140 c black",
"141 c black",
"142 c black",
"143 c black",
"144 c black",
"145 c black",
"146 c black",
"147 c black",
"148 c black",
"149 c black",
"150 c black",
"151 c black",
"152 c black",
"153 c black",
"154 c black",
"155 c black",
"156 c black",
"157 c black",
"158 c black",
"159 c black",
"160 c black",
"161 c black",
"162 c black",
"163 c black",
"164 c black",
"165 c black",
"166 c black",
"167 c black",
"168 c black",
"169 c black",
"170 c black",
"171 c black",
"172 c black",
"173 c black",
"174 c black",
"175 c black",
"176 c black",
"177 c black",
"178 c black",
"179 c black",
"180 c black",
"181 c black",
"182 c black",
"183 c black",
"184 c black",
"185 c black",
"186 c black",
"187 c black",
"188 c black",
"189 c black",
"190 c black",
"191 c black",
"192 c black",
"193 c black",
"194 c black",
"195 c black",
"196 c black",
"197 c black",
"198 c black",
"199 c black",
"200 c black",
"201 c black",
"202 c black",
"203 c black",
"204 c black",
"205 c black",
"206 c black",
"207 c black",
"208 c black",
"209 c black",
"210 c black",
"211 c black",
"212 c black",
"213 c black",
"214 c black",
"215 c black",
"216 c black",
"217 c black",
"218 c black",
"219 c black",
"220 c black",
"221 c black",
"222 c black",
"223 c black",
"224 c black",
"225 c black",
"226 c black",
"227 c black",
"228 c black",
"229 c black",
"230 c black",
"231 c black",
"232 c black",
"233 c black",
"234 c black",
"235 c black",
"236 c black",
"237 c black",
"238 c black",
"239 c black",
"240 c black",
"241 c black",
"242 c black",
"243 c black",
"244 c black",
"245 c black",
"246 c black",
"247 c black",
"248 c black",
"249 c black",
"250 c black",
"251 c black",
"252 c black",
"253 c black",
"254 c black",
"255 c black",
"069069069069069069069069069069069069069069069069069069069069069069069069069069069069069069069069069069069069069069069069069069069069069",
"069069069069069069069069069069069069069069069069069069069069069057042059069069069069069069069069069069069069069069069069069069069069069",
"069069069069069069069069069069069069069069068054042037057067069042007049069069069069069069069069069069069069069069069069069069069069069",
"069069069069069069069069069069069069069058020000000000000004054042016049069069069069069069069069069069069069069069069069069069069069069",
"069069069069069069069069069069069069068020000019035034021000049042016049069068048035051069069054042059061042064057042057069069069069069",
"069069069011000000022062069069069069054000022067069069069053059042016049069027009000003032069045002045032000040034000049069069069069069",
"069069047000000000000000069069069069036000043069057042042042059042016049054003006029001003061055000036004000010030001057069069069069069",
"069069034000000000000000069069069069037000043069042000000007049042016049036004038069028004047065000006000002000002000063069069069069069",
"069069049000000000000000069069069069052000017067057042025016049042016049036002031069027002046069008000000044000000000069069069069069069",
"069069069015000000023062069069069069067020000012033035018013049042016049054003005029001003060069028000010068017000014069069069069069069",
"069069069066049036067069069069069069069059024000000000000003054042007049069028006000006033069069036000041069039000026069069069069069069",
"069069069069069069069069069069069069069069069056042036050066069057042059069068049035052069069069058041064069061037053069069069069069069",
"069069069069069069069069069069069069069069069069069069069069069069069069069069069069069069069069069069069069069069069069069069069069069",
"069069069069069069069069069069069069069069069069069069069069069069069069069069069069069069069069069069069069069069069069069069069069069",
"069069069069069069069069069069069069069069069069069069069069069069069069069069069069069069069069069069069069069069069069069069069069069"
};
