/* XPM */
static const char *lock_X[] = {
/* columns rows colors chars-per-pixel */
"24 24 182 2",
"   c black",
".  c #010101",
"X  c gray1",
"o  c #040404",
"O  c gray2",
"+  c #070707",
"@  c gray3",
"#  c #090809",
"$  c gray4",
"%  c #0B0B0B",
"&  c #0C0C0C",
"*  c gray5",
"=  c #0E0E0E",
"-  c gray6",
";  c gray8",
":  c #151515",
">  c #161616",
",  c #171817",
"<  c #181818",
"1  c #191919",
"2  c #222222",
"3  c gray14",
"4  c #272627",
"5  c #262826",
"6  c #272927",
"7  c #2A2A2A",
"8  c #2C2D2C",
"9  c #2D2D2D",
"0  c #313131",
"q  c #313231",
"w  c #323232",
"e  c #3A3A3A",
"r  c #3D3E3D",
"t  c #3F3F3F",
"y  c #007200",
"u  c #137F13",
"i  c gray25",
"p  c #434343",
"a  c #444444",
"s  c gray27",
"d  c #474947",
"f  c #4C4C4C",
"g  c gray30",
"h  c #4E4E4E",
"j  c gray32",
"k  c #545254",
"l  c #555555",
"z  c #565656",
"x  c #595459",
"c  c #595859",
"v  c #5B5B5B",
"b  c #5F5F5F",
"n  c #5F625F",
"m  c gray38",
"M  c gray39",
"N  c #646464",
"B  c #676767",
"V  c #716D71",
"C  c gray44",
"Z  c #717171",
"A  c #717271",
"S  c gray45",
"D  c #747474",
"F  c #777877",
"G  c #7A7C7A",
"H  c #7C7C7C",
"J  c gray49",
"K  c #2A842A",
"L  c #2A862A",
"P  c #308D30",
"I  c #328C32",
"U  c #3D863D",
"Y  c #3F893F",
"T  c #369036",
"R  c #3B903B",
"E  c #4F884F",
"W  c #419241",
"Q  c #4C964C",
"!  c #508F50",
"~  c #568D56",
"^  c #539753",
"/  c #549354",
"(  c #5D905D",
")  c #5DA05D",
"_  c #628362",
"`  c #609760",
"'  c #669966",
"]  c #659C65",
"[  c #6F9B6F",
"{  c #759775",
"}  c #729872",
"|  c #799979",
" . c #7BA27B",
".. c #7EA67E",
"X. c #7FA87F",
"o. c #847F84",
"O. c #828182",
"+. c gray51",
"@. c #838383",
"#. c #848484",
"$. c #8E8E8E",
"%. c #8E968E",
"&. c gray57",
"*. c #909490",
"=. c #959595",
"-. c #979B97",
";. c #989898",
":. c #9D9D9D",
">. c gray62",
",. c #9F9F9F",
"<. c #80A180",
"1. c #83A683",
"2. c #8CA88C",
"3. c #8DA88D",
"4. c #8EAA8E",
"5. c #8CAC8C",
"6. c #93AB93",
"7. c #91AD91",
"8. c #95AB95",
"9. c #95AC95",
"0. c #96AF96",
"q. c #9EA79E",
"w. c #9BAE9B",
"e. c #9BAF9B",
"r. c #9EAA9E",
"t. c #9FAD9F",
"y. c #9EB09E",
"u. c #A2A2A2",
"i. c gray64",
"p. c #A1A7A1",
"a. c #A5A5A5",
"s. c #A7A7A7",
"d. c #A5A8A5",
"f. c #A6AFA6",
"g. c gray66",
"h. c #A9A9A9",
"j. c #A9AAA9",
"k. c gray67",
"l. c #A9ACA9",
"z. c #ACA9AC",
"x. c #ACACAC",
"c. c #AFAFAF",
"v. c #A2B0A2",
"b. c #A3B2A3",
"n. c #A4B0A4",
"m. c #A6B4A6",
"M. c #A5BAA5",
"N. c #A8B4A8",
"B. c #ACB6AC",
"V. c #AEB6AE",
"C. c #AEB8AE",
"Z. c gray69",
"A. c #B1B1B1",
"S. c #B1B3B1",
"D. c #B2B2B2",
"F. c gray70",
"G. c #B7B7B7",
"H. c #B0BAB0",
"J. c #B7B8B7",
"K. c #B5BEB5",
"L. c #B7BCB7",
"P. c #B6BEB6",
"I. c #B9B9B9",
"U. c #BAB9BA",
"Y. c #C9BDC9",
"T. c #C9C3C9",
"R. c #CBC3CB",
"E. c #C8C5C8",
"W. c #CAC4CA",
"Q. c #CBC5CB",
"!. c #CCC3CC",
"~. c #CFC3CF",
"^. c #CDC4CD",
"/. c #CCC6CC",
"(. c gray79",
"). c #CDCDCD",
"_. c #CECECE",
"`. c #D4D0C8",
"'. c #D3C6D3",
"]. c #D4C4D4",
"[. c #DCCADC",
"{. c #D0D0D0",
/* pixels */
"`.`.`.`.`.`.`.`.`.`.`.`.`.`.`.`.`.`.`.`.`.`.`.`.",
"`.`.`.).)._.`.`.`.`.`.`.`.`.`.`.`.`.).)._.`.`.`.",
"`.`.H 2 2 < D `.`.`.`.`.`.`.`.`.`.J 2 2 < C `.`.",
"`.`.(.f       ,.`.`.`.`.`.`.`.`.:.;     t I.`.`.",
"`.`.`.c.e     0 A.`.`.`.`.`.`.`.s     w s.`.`.`.",
"`.`.`.`.a.7     b A.`.`.`.`.`.+.    1 x.`.`.`.`.",
"`.`.`.`.`.D.:     &.`.`.W.`.u.o   * g.`.`.`.`.`.",
"`.`.`.`.`.`.;.    1 U.`.! l.i   O O.G.`.`.`.`.`.",
"`.`.`.`.`.`.G.#.+   d J.c.Z   . F G.`.`.`.`.`.`.",
"E.8.R.[ y.Y.R v.G     A -.    V M.3.{ `.B.`.`.`.",
"_ 6.^ 0.~ u ].`.N.n   & ,   x } `.t.I / '.r.V./.",
"`.1.` E 9.~.K T !.G.q     8 z.2.y X.`.m.L ' ^.| ",
"`.T.[.] U Q 7.`.W d.=     # o.( L.S.P w.e.n.Y b.",
"`.`.`.T.R.5...) `.6   k c   $ >.4.! <.H. .`.Q.`.",
"`.`.`.`.`.`.f.I.r   5 q.p.4   1 j.`.`.`.`.`.`.`.",
"`.`.`.`.`.`.`.p   X %.P.`.*.-   9 k.`.`.`.`.`.`.",
"`.`.`.`.`.{.M     b K.C.`.`.N     a `.`.`.`.`.`.",
"`.`.`.`.`.H     3 Z.`.`.`.`.`.7     v `.`.`.`.`.",
"`.`.`.`.@.    & =.I.`.`.`.`.`.k..     S `.`.`.`.",
"`.`.`.i.$     m `.`.`.`.`.`.`.I.B     % $.`.`.`.",
"`.`.G.>     7 `.`.`.`.`.`.`.`.`.F.i     @ h.`.`.",
"`.`.C j z g s.`.`.`.`.`.`.`.`.`.`.s.l z h N `.`.",
"`.`.`.`.`.`.`.`.`.`.`.`.`.`.`.`.`.`.`.`.`.`.`.`.",
"`.`.`.`.`.`.`.`.`.`.`.`.`.`.`.`.`.`.`.`.`.`.`.`."
};
