/* XPM */
static const char *lock_Z[] = {
/* columns rows colors chars-per-pixel */
"24 24 173 2",
"   c black",
".  c #010101",
"X  c #020202",
"o  c #040404",
"O  c #090909",
"+  c #0A090A",
"@  c #0E0E0E",
"#  c gray6",
"$  c #111111",
"%  c #191919",
"&  c #1E1E1E",
"*  c #222122",
"=  c #222222",
"-  c #282828",
";  c #2C2C2C",
":  c #2D2D2D",
">  c #313131",
",  c gray21",
"<  c #3E3E3E",
"1  c #007300",
"2  c #117811",
"3  c #137F13",
"4  c #147C14",
"5  c #167D16",
"6  c #277D27",
"7  c #414141",
"8  c gray27",
"9  c #464646",
"0  c gray28",
"q  c #484848",
"w  c #494949",
"e  c gray29",
"r  c #4B4B4B",
"t  c #4E4E4E",
"y  c gray31",
"u  c gray32",
"i  c #535353",
"p  c gray33",
"a  c #555555",
"s  c #565656",
"d  c gray34",
"f  c gray35",
"g  c #5A5A5A",
"h  c gray37",
"j  c #626262",
"k  c #646464",
"l  c #676767",
"z  c #727372",
"x  c #777477",
"c  c #767676",
"v  c #797979",
"b  c gray48",
"n  c #7C7C7C",
"m  c #2A842A",
"M  c #2A862A",
"N  c #308D30",
"B  c #328C32",
"V  c #3D863D",
"C  c #398A39",
"Z  c #3F893F",
"A  c #3D8E3D",
"S  c #379037",
"D  c #408340",
"F  c #468D46",
"G  c #4F884F",
"H  c #4E8D4E",
"J  c #4C964C",
"K  c #568D56",
"L  c #539753",
"P  c #549354",
"I  c #579457",
"U  c #628362",
"Y  c #619061",
"T  c #609760",
"R  c #669966",
"E  c #659C65",
"W  c #6F9B6F",
"Q  c #759775",
"!  c #799979",
"~  c #79A179",
"^  c #7BA27B",
"/  c #7EA07E",
"(  c #7DA87D",
")  c #7FA87F",
"_  c #888888",
"`  c #8A8C8A",
"'  c #8F9C8F",
"]  c #918C91",
"[  c #939293",
"{  c #929592",
"}  c #959595",
"|  c #989898",
" . c gray60",
".. c #9F9F9F",
"X. c #80A180",
"o. c #83A683",
"O. c #81A981",
"+. c #86AC86",
"@. c #8AA78A",
"#. c #89A989",
"$. c #8DAD8D",
"%. c #90AA90",
"&. c #90AB90",
"*. c #93AB93",
"=. c #90AD90",
"-. c #93AE93",
";. c #95AB95",
":. c #95AC95",
">. c #96AF96",
",. c #99AC99",
"<. c #9BAE9B",
"1. c #9BAF9B",
"2. c #9EAA9E",
"3. c #9FAD9F",
"4. c #9CB09C",
"5. c #9EB09E",
"6. c #A1A0A1",
"7. c #A4A4A4",
"8. c #A5A5A5",
"9. c #A7A8A7",
"0. c #ABADAB",
"q. c #ACACAC",
"w. c #AFAFAF",
"e. c #A1B2A1",
"r. c #A3B2A3",
"t. c #A4B0A4",
"y. c #A5B4A5",
"u. c #A6B4A6",
"i. c #A7B4A7",
"p. c #A7B5A7",
"a. c #AAB6AA",
"s. c #ADB5AD",
"d. c #ACB6AC",
"f. c #AEB6AE",
"g. c #AFB8AF",
"h. c #ADBFAD",
"j. c #B2AEB2",
"k. c gray69",
"l. c #B1B2B1",
"z. c gray70",
"x. c #B2B4B2",
"c. c gray71",
"v. c #B7B7B7",
"b. c #B0BAB0",
"n. c #B4B9B4",
"m. c #B6BAB6",
"M. c gray72",
"N. c #B9B9B9",
"B. c #B8BAB8",
"V. c #B8BCB8",
"C. c #C7BFC7",
"Z. c #CABECA",
"A. c #C7C2C7",
"S. c #C9C3C9",
"D. c #CBC3CB",
"F. c #C8C5C8",
"G. c #CBC4CB",
"H. c #CBC5CB",
"J. c #CEC3CE",
"K. c #CFC3CF",
"L. c #CDC4CD",
"P. c #CCC6CC",
"I. c gray80",
"U. c #D4D0C8",
"Y. c #D1C7D1",
"T. c #D3C6D3",
"R. c #D5C4D5",
"E. c #D7C6D7",
"W. c #D8C8D8",
"Q. c #D9C9D9",
"!. c #D9CAD9",
"~. c #DCCADC",
"^. c #D0D0D0",
/* pixels */
"U.U.U.U.U.U.U.U.U.U.U.U.U.U.U.U.U.U.U.U.U.U.U.U.",
"U.} 0 9 9 9 9 9 9 9 9 9 9 9 9 9 8 w d d a j U.U.",
"U.k.7.7.8.8.8.8.8.8.8.8.8.8.8.8.q.v       i U.U.",
"U.U.U.U.U.U.U.U.U.U.U.U.U.U.U.U.v.7     e U.U.U.",
"U.U.U.U.U.U.U.U.U.U.U.U.U.U.U.U.y     , w.U.U.U.",
"U.U.U.U.U.U.U.U.U.U.U.U.U.U.U.p     > M.U.U.U.U.",
"U.U.U.U.U.U.U.U.U.U.U.U.U.U.g     ; M.U.U.U.U.U.",
"U.U.U.U.U.U.U.S.S.A.Q.U.i.z X   & 6.U.U.U.U.U.U.",
"U.U.U.U.U.U.U.( O./ 5 #.b     % 0.B.U.U.U.U.U.U.",
"F.;.D.W 5.Z.B Y s.A E.`     $ j.%.&.Q U.d.U.U.U.",
"U *.L >.K 3 R.m.D 4.[ #   + ] I U.3.B P T.2.f.P.",
"U.o.T G :.K.m S C...    O { U.@.1 ) U.u.M R L.! ",
"U.S.~.E V J -.J.' @     | +.,.6 V.x.N <.1.t.Z r.",
"U.U.U.S.D.$.~ 9.*     x U.4 I g.=.H X.b.^ U.H.U.",
"U.U.U.U.U.M.l.=   . n a.F Y.W.2 n.U.U.U.U.U.U.U.",
"U.U.U.U.U.c.-     c h.p.L.C U.!.U.U.U.U.U.U.U.U.",
"U.U.U.U.N.<     f U.e.y.U.G.U.U.U.U.U.U.U.U.U.U.",
"U.U.U.z.0     j U.U.U.U.U.U.U.U.U.U.U.U.U.U.U.U.",
"U.U.U.0     u ^.U.U.U.U.U.U.U.U.U.U.U.U.U.U.U.U.",
"U.U.l     q I.U.U.U.U.U.U.U.U.U.U.U.U.U.U.U.U.U.",
"U._ o     : t t t t t t t t t t t t t t r k U.U.",
"U. .a a s y e e e e e e e e e e e e e e 0 h U.U.",
"U.U.U.U.U.U.U.U.U.U.U.U.U.U.U.U.U.U.U.U.U.U.U.U.",
"U.U.U.U.U.U.U.U.U.U.U.U.U.U.U.U.U.U.U.U.U.U.U.U."
};
