/* XPM */
static const char *lock_Y[] = {
/* columns rows colors chars-per-pixel */
"24 24 158 2",
"   c black",
".  c #070707",
"X  c gray5",
"o  c #101010",
"O  c #111111",
"+  c gray7",
"@  c #151515",
"#  c #1D1D1D",
"$  c gray12",
"%  c #201F20",
"&  c gray14",
"*  c #282628",
"=  c #282828",
"-  c #2F2F2F",
";  c #323032",
":  c #343434",
">  c #353535",
",  c gray22",
"<  c gray23",
"1  c gray24",
"2  c #007700",
"3  c #117811",
"4  c #137F13",
"5  c gray25",
"6  c #474847",
"7  c #484848",
"8  c #494949",
"9  c gray29",
"0  c #4F4B4F",
"q  c #4C4C4C",
"w  c #4D4C4D",
"e  c gray31",
"r  c #515151",
"t  c gray33",
"y  c #555455",
"u  c #555555",
"i  c #565656",
"p  c gray34",
"a  c #5B5B5B",
"s  c gray38",
"d  c gray39",
"f  c DimGray",
"g  c #6A696A",
"h  c #6C6C6C",
"j  c gray43",
"k  c #6F6F6F",
"l  c #717171",
"z  c #707270",
"x  c #7C7C7C",
"c  c #228A22",
"v  c #2A842A",
"b  c #2A862A",
"n  c #2E832E",
"m  c #308D30",
"M  c #328C32",
"N  c #398539",
"B  c #3D863D",
"V  c #3F893F",
"C  c #389038",
"Z  c #4B8C4B",
"A  c #4F884F",
"S  c #4E8D4E",
"D  c #4C964C",
"F  c #568D56",
"G  c #519351",
"H  c #539253",
"J  c #539753",
"K  c #549354",
"L  c #5E9A5E",
"P  c #628362",
"I  c #609760",
"U  c #669966",
"Y  c #659C65",
"T  c #6F9B6F",
"R  c #759775",
"E  c #799979",
"W  c #75A175",
"Q  c #7BA27B",
"!  c #7EA77E",
"~  c #7FA67F",
"^  c #818381",
"/  c #868686",
"(  c gray54",
")  c #8E8E8E",
"_  c #8B9C8B",
"`  c gray58",
"'  c gray59",
"]  c #9D9F9D",
"[  c #80A180",
"{  c #83A683",
"}  c #86A386",
"|  c #8CAC8C",
" . c #93AB93",
".. c #91AD91",
"X. c #95AB95",
"o. c #95AC95",
"O. c #96AF96",
"+. c #9BAE9B",
"@. c #9BAF9B",
"#. c #9FA99F",
"$. c #9EAA9E",
"%. c #9FAA9F",
"&. c #9CB09C",
"*. c #9EB09E",
"=. c #A0A0A0",
"-. c gray63",
";. c #A2A2A2",
":. c #A2A4A2",
">. c #A7A3A7",
",. c gray65",
"<. c #A7A7A7",
"1. c #A2ADA2",
"2. c #A2AEA2",
"3. c #A8ADA8",
"4. c #ACACAC",
"5. c #AFAFAF",
"6. c #A3B2A3",
"7. c #A4B0A4",
"8. c #A6B4A6",
"9. c #AAB1AA",
"0. c #ACB6AC",
"q. c #ADB7AD",
"w. c #AEB6AE",
"e. c #AFB8AF",
"r. c #B9AEB9",
"t. c #B1B1B1",
"y. c #B2B2B2",
"u. c gray70",
"i. c #B2B4B2",
"p. c #B5B2B5",
"a. c gray71",
"s. c #B6B6B6",
"d. c #B7B7B7",
"f. c #B0BAB0",
"g. c #B3BAB3",
"h. c #B4B9B4",
"j. c gray72",
"k. c #B9B9B9",
"l. c #B8BAB8",
"z. c #C0B0C0",
"x. c #C7BEC7",
"c. c gray78",
"v. c #C9C3C9",
"b. c #CBC3CB",
"n. c #C8C5C8",
"m. c #CAC4CA",
"M. c #CBC5CB",
"N. c #CFC3CF",
"B. c #CDC4CD",
"V. c #CCC6CC",
"C. c #CEC6CE",
"Z. c #CEC7CE",
"A. c #CCCACC",
"S. c #D4D0C8",
"D. c #D1C3D1",
"F. c #D3C6D3",
"G. c #D9CAD9",
"H. c #DCCADC",
/* pixels */
"S.S.S.S.S.S.S.S.S.S.S.S.S.S.S.S.S.S.S.S.S.S.S.S.",
"S.k.( t p r s.S.S.S.S.S.S.S.S.S.S.S.s i r h S.S.",
"S.S.u.O     5 c.S.S.S.S.S.S.S.S.S.l       =.S.S.",
"S.S.S.`       / S.S.S.S.S.S.S.S.-.+     j S.S.S.",
"S.S.S.j.p     = 4.S.S.S.S.S.S.S.9     1 s.S.S.S.",
"S.S.S.S.<.-     d u.S.S.S.S.S.)     O a.S.S.S.S.",
"S.S.S.S.S.,..     ;.S.S.m.S.S.O     ` S.S.S.S.S.",
"S.S.S.S.S.S.k     : A.S.Z e.g     a d.S.S.S.S.S.",
"S.S.S.S.S.S.5.<     z S.S.' X   > 4.S.S.S.S.S.S.",
"n.X.b.T *.S.L >.$   @ ] 8.;   o #.&.R S.0.S.S.S.",
"P  .J O.F 4 D.S.^     , e     ^ C.9.M K F.$.w.V.",
"S.{ I A o.N.v C B.q         y 3.2 ! S.8.b U B.E ",
"S.v.H.Y B D ..x.G 2.%     # r.N g.i.m +.@.7.V 6.",
"S.S.S.v.b.| ~ c W %.w     * _ q...S [ f.Q S.M.S.",
"S.S.S.S.S.S.1.l.n t.6     & z.3 h.S.S.S.S.S.S.S.",
"S.S.S.S.S.S.S...H } 0     & :.G.S.S.S.S.S.S.S.S.",
"S.S.S.S.S.S.S.S.Z.p.7     & ,.S.S.S.S.S.S.S.S.S.",
"S.S.S.S.S.S.S.S.S.y.8     & ,.S.S.S.S.S.S.S.S.S.",
"S.S.S.S.S.S.S.S.S.y.8     & ,.S.S.S.S.S.S.S.S.S.",
"S.S.S.S.S.S.S.S.S.y.8     & ,.S.S.S.S.S.S.S.S.S.",
"S.S.S.S.S.S.S.S.S.t.7     & ,.S.S.S.S.S.S.S.S.S.",
"S.S.S.S.S.S.S.S.S.u.x r u f 4.S.S.S.S.S.S.S.S.S.",
"S.S.S.S.S.S.S.S.S.S.S.S.S.S.S.S.S.S.S.S.S.S.S.S.",
"S.S.S.S.S.S.S.S.S.S.S.S.S.S.S.S.S.S.S.S.S.S.S.S."
};
