/* XPM */
static const char *_new_btn[] = {
/* columns rows colors chars-per-pixel */
"16 16 41 1",
"  c black",
". c #010101",
"X c #000201",
"o c #020200",
"O c #000002",
"+ c #000202",
"@ c #060600",
"# c #060502",
"$ c #0C0C00",
"% c #0F0F05",
"& c #110F03",
"* c #EBEF7F",
"= c #F8FB9B",
"- c #F3F2A3",
"; c #EEECB8",
": c #F4F2BC",
"> c #FEFCBE",
", c #F0EDC6",
"< c #FFFDC1",
"1 c #E9E7D5",
"2 c #F7F5DD",
"3 c #FDFCDB",
"4 c #FEFCDE",
"5 c #FFFEDF",
"6 c #FAF8E0",
"7 c #F7F7F3",
"8 c #F9FBF7",
"9 c #FBFBF7",
"0 c #F7F7F9",
"q c #FBFBF9",
"w c #F9F9FB",
"e c #FCFBF8",
"r c #FDFDFB",
"t c #FEFDFA",
"y c #FBFBFF",
"u c #FBFCFF",
"i c #FDFFFD",
"p c #FDFDFF",
"a c #FDFFFE",
"s c #FEFEFE",
"d c gray100",
/* pixels */
"@ddoyyoaaoyyodd@",
"dodoqdoddodwodod",
"ddddddrddrdddddd",
"oo7@%$&$$%$%#7oo",
"y0d%12444421%d0y",
"ydq$6,;<<;,6$qdy",
"ood$4:-==-:4$doo",
"dqd%3>=**=>3%d8d",
"d8d&3>=**=>3&d8d",
"ood$4:-==-:4$doo",
"ydq$6,;<<;,6$qda",
"y0d%12444421%d0y",
"oo7#%$%$$%$%@7oo",
"ddddddrddrdddddd",
"dodoqdoddod8odod",
"@ddoyyoaaoyyodd@"
};
