/* XPM */
static const char *pcsico[] = {
/* columns rows colors chars-per-pixel */
"32 32 189 2",
"   c black",
".  c #010101",
"X  c #020202",
"o  c gray1",
"O  c #040404",
"+  c gray2",
"@  c #070707",
"#  c gray3",
"$  c #0B0B0B",
"%  c #0C0C0C",
"&  c gray5",
"*  c #0E0E0E",
"=  c gray6",
"-  c #101010",
";  c #131313",
":  c gray8",
">  c #161616",
",  c gray9",
"<  c gray10",
"1  c #1B1B1B",
"2  c gray11",
"3  c gray12",
"4  c #202020",
"5  c #222222",
"6  c gray14",
"7  c #252525",
"8  c gray15",
"9  c #282828",
"0  c #2A2A2A",
"q  c gray18",
"w  c #2F2F2F",
"e  c gray19",
"r  c #313131",
"t  c #323232",
"y  c gray20",
"u  c #343434",
"i  c #393939",
"p  c #3A3A3A",
"a  c gray23",
"s  c #3C3C3C",
"d  c #3E3E3E",
"f  c gray25",
"g  c #414141",
"h  c gray26",
"j  c #494949",
"k  c gray29",
"l  c #4B4B4B",
"z  c #4C4C4C",
"x  c gray30",
"c  c gray31",
"v  c #515151",
"b  c gray32",
"n  c #535353",
"m  c gray33",
"M  c #555555",
"N  c #565656",
"B  c gray34",
"V  c #585858",
"C  c gray35",
"Z  c #5A5A5A",
"A  c #5B5B5B",
"S  c #5D5D5D",
"D  c gray37",
"F  c #5F5F5F",
"G  c #606060",
"H  c gray38",
"J  c #626262",
"K  c gray39",
"L  c #646464",
"P  c #656565",
"I  c gray40",
"U  c #676767",
"Y  c #686868",
"T  c DimGray",
"R  c #6A6A6A",
"E  c gray42",
"W  c #6C6C6C",
"Q  c #6D6D6D",
"!  c gray43",
"~  c #6F6F6F",
"^  c gray44",
"/  c #717171",
"(  c #727272",
")  c gray45",
"_  c #747474",
"`  c gray46",
"'  c #767676",
"]  c #777777",
"[  c #797979",
"{  c gray48",
"}  c #7B7B7B",
"|  c #7C7C7C",
" . c gray49",
".. c #7E7E7E",
"X. c #008080",
"o. c #808080",
"O. c gray51",
"+. c #838383",
"@. c #848484",
"#. c gray52",
"$. c #868686",
"%. c gray53",
"&. c #888888",
"*. c #8B8B8B",
"=. c gray55",
"-. c #8D8D8D",
";. c #8E8E8E",
":. c gray56",
">. c gray57",
",. c #929292",
"<. c #939393",
"1. c #959595",
"2. c gray59",
"3. c #979797",
"4. c #989898",
"5. c gray60",
"6. c #9D9D9D",
"7. c #A0A0A0",
"8. c gray63",
"9. c #A2A2A2",
"0. c gray64",
"q. c #A4A4A4",
"w. c #A5A5A5",
"e. c gray65",
"r. c #A7A7A7",
"t. c gray66",
"y. c #A9A9A9",
"u. c #AAAAAA",
"i. c gray67",
"p. c #ACACAC",
"a. c gray68",
"s. c #AEAEAE",
"d. c #AFAFAF",
"f. c gray69",
"g. c #B1B1B1",
"h. c #B2B2B2",
"j. c gray70",
"k. c #B4B4B4",
"l. c gray71",
"z. c #B6B6B6",
"x. c #B7B7B7",
"c. c gray72",
"v. c #B9B9B9",
"b. c gray73",
"n. c #BBBBBB",
"m. c #BCBCBC",
"M. c gray74",
"N. c gray",
"B. c gray75",
"V. c #C0C0C0",
"C. c #C1C1C1",
"Z. c gray76",
"A. c #C3C3C3",
"S. c gray77",
"D. c #C5C5C5",
"F. c gray78",
"G. c #C8C8C8",
"H. c gray79",
"J. c gray80",
"K. c #CDCDCD",
"L. c #CECECE",
"P. c gray81",
"I. c #D0D0D0",
"U. c gray82",
"Y. c gray83",
"T. c #D5D5D5",
"R. c gray84",
"E. c #D8D8D8",
"W. c gainsboro",
"Q. c #DDDDDD",
"!. c gray87",
"~. c #E2E2E2",
"^. c gray89",
"/. c #E4E4E4",
"(. c gray90",
"). c gray91",
"_. c #EAEAEA",
"`. c gray93",
"'. c #EFEFEF",
"]. c #F1F1F1",
"[. c #F3F3F3",
"{. c gray96",
"}. c #F6F6F6",
"|. c #F8F8F8",
" X c #FBFBFB",
".X c gray99",
"XX c #FDFDFD",
"oX c #FEFEFE",
"OX c gray100",
/* pixels */
"X.X.X.X.X.X.X.X.X.X.X.X.X.X.X.X.{ X.X.X.X.X.X.X.X.X.X.X.X.X.X.X.",
"X.X.X.X.X.X.X.X.X.X.X.X.X.X.{ x.r.n.v X.X.X.X.X.X.X.X.X.X.X.X.X.",
"X.X.X.X.X.X.X.X.X.X.X.X. .;.U.$.n ;.Z.-.O.X.X.X.X.X.X.X.X.X.X.X.",
"X.X.X.X.X.X.X.X.X.w.$.p.t.7.. . . ) U q.w.N.H X.X.X.X.X.X.X.X.X.",
"X.X.X.X.X.X.X.! L T.A.b . X . 2 y a ( Z @.4.C.#.} X.X.X.X.X.X.X.",
"X.X.X.X.9.x y.y.y.A . . > * x.P E   r.( U I I i.w.p.M X.X.X.X.X.",
"X.X.X.T D.n.~ u     . ` OXOXP.Q /   P.OXy./ ( B +.3.M.! k X.X.X.",
"X.X.X.R t.y.y.n # d.OXOXOXOXD.] D   L.OXOX|.^./ I K ~ r.9.V X.X.",
"X.X.X.R D ! q.c.m.G OXOXOXOXZ.] g   Y.OXOXOXOXI.<.4.r.V.v 4 X.X.",
"X.X.X.G U U U %.t.r.i.6.{.OXC.[ 9   R.OX XG.#.N.0.8.g.  . X X.X.",
"X.X.X.f E . I T K 8.d.c.#.).x.[ $   R.`.:.=.c.S.v 3   @ . % X.X.",
"X.X.X.i P   B ~ I I P d.r.b.c }   . D k.q.q.0.. . . * } . & X.X.",
"X.X.X.p P . x OX4.M Q ~ @.d.b.*.d *.v.D.m 3 O o z r.:.Q . * X.X.",
"X.X.X.a K   x OXOXOXn ~ P ) e.q.w.w.q.. . + 1 oXOX_.o.! . = X.X.",
"X.X.X.a L   l OXOXOXOXn.h P A &.:.0     d M.XXOXOX~.} S . - X.X.",
"X.X.X.a K   k OXOX.XM.) j.%.L ^ . . . ] Y ].OXOXOXU._ t . 7 X.X.",
"X.X.X.p K   k XXQ.U P ^.K.v J ! .   6.c.D./ u.OXOXx.H e . 7 X.X.",
"X.X.X.s J   8 Y c.h.h.C . , K ~ . . G N s.f.s.j F.j.G e . 7 X.X.",
"X.X.X.a H   . }.G.C     r.H.H Q .   5...H K M.E.J b G e . 7 X.X.",
"X.X.X.a H   . ^ . ; W OXOX[.J ! . . W.OX>.' F #.a.$.F y . 7 X.X.",
"X.X.X.p G h j.r %.Y.OXOXOX'.G W .   !.OXOXW.q.K / T V 4 . 7 X.X.",
"X.X.X.X.G ..j.j.x.,.OXOXOX`.H W . . (.OXOXOX].G s.d.,.. . X.X.X.",
"X.X.X.X.X.x N i.x.,.&.'.OX/.F T . i '.OX|.l./ M.Z.1.<   X.X.X.X.",
"X.X.X.X.X.X.R V ,.z.h./ <./.G P . l '.x.V S.a.Z.X . 5 X.X.X.X.X.",
"X.X.X.X.X.X.X.X.L I B.H._ H D l . f { 1.A.I.B : . ~ X.X.X.X.X.X.",
"X.X.X.X.X.X.X.X.X.T D 2.g.b.G t . B s.d.s.  . m X.X.X.X.X.X.X.X.",
"X.X.X.X.X.X.X.X.X.X.| S %.J.S q . D A.A X $ X.X.X.X.X.X.X.X.X.X.",
"X.X.X.X.X.X.X.X.X.X.X.X.S K D q . 6 . & n X.X.X.X.X.X.X.X.X.X.X.",
"X.X.X.X.X.X.X.X.X.X.X.X.X.] D q X   - X.X.X.X.X.X.X.X.X.X.X.X.X.",
"X.X.X.X.X.X.X.X.X.X.X.X.X.X.X.w N X.X.X.X.X.X.X.X.X.X.X.X.X.X.X.",
"X.X.X.X.X.X.X.X.X.X.X.X.X.X.X.X.X.X.X.X.X.X.X.X.X.X.X.X.X.X.X.X.",
"X.X.X.X.X.X.X.X.X.X.X.X.X.X.X.X.X.X.X.X.X.X.X.X.X.X.X.X.X.X.X.X."
};
