/* XPM */
static const char *tbRevert[] = {
"45 15 256 3",
"000 c #400000",
"001 c #420202",
"002 c #420303",
"003 c #440606",
"004 c #450706",
"005 c #460909",
"006 c #470909",
"007 c #480C0C",
"008 c #490C0C",
"009 c #490D0C",
"010 c #490D0D",
"011 c #4B1010",
"012 c #4D1312",
"013 c #501615",
"014 c #501715",
"015 c #501616",
"016 c #501716",
"017 c #531A19",
"018 c #551D1B",
"019 c #541C1C",
"020 c #541D1C",
"021 c #551D1C",
"022 c #56201F",
"023 c #57201F",
"024 c #592422",
"025 c #5B2625",
"026 c #5E2A28",
"027 c #602D2B",
"028 c #62302F",
"029 c #62312E",
"030 c #653332",
"031 c #643431",
"032 c #653432",
"033 c #6B3D3B",
"034 c #6E413E",
"035 c #704441",
"036 c #724744",
"037 c #734744",
"038 c #754B48",
"039 c #774E4B",
"040 c #7C5451",
"041 c #7E5755",
"042 c #7E5854",
"043 c #815B57",
"044 c #835E5A",
"045 c #835E5B",
"046 c #876561",
"047 c #8A6864",
"048 c #8C6B67",
"049 c #8E6E6A",
"050 c #91726D",
"051 c #937570",
"052 c #937571",
"053 c #957874",
"054 c #987B77",
"055 c red",
"056 c #FE0303",
"057 c #FD0606",
"058 c #FC0909",
"059 c #FB100F",
"060 c #FA1615",
"061 c #F8201F",
"062 c #F62725",
"063 c #F33735",
"064 c #F43432",
"065 c #F23D3B",
"066 c #EF4B48",
"067 c #EE4E4B",
"068 c #EC5854",
"069 c #EC5B57",
"070 c #EA6561",
"071 c #E96864",
"072 c #E86E6A",
"073 c #E7726D",
"074 c #E67570",
"075 c #E47F7A",
"076 c #9B807B",
"077 c #9C827D",
"078 c #E4827D",
"079 c #A18983",
"080 c #A38C86",
"081 c #A68F8A",
"082 c #A8928D",
"083 c #AA9690",
"084 c #AD9993",
"085 c #AF9C96",
"086 c #B19F99",
"087 c #B4A39C",
"088 c #B6A6A0",
"089 c #B8A9A3",
"090 c #BBACA6",
"091 c #BDB0A9",
"092 c #BFB3AC",
"093 c #DF9690",
"094 c #DE9C96",
"095 c #DDA39C",
"096 c #C2B6AF",
"097 c #C4B9B2",
"098 c #C6BDB5",
"099 c #DBACA6",
"100 c #D9B6AF",
"101 c #D7BDB5",
"102 c #E18C86",
"103 c #C8C0B9",
"104 c #CBC3BC",
"105 c #CDC7BF",
"106 c #D7C0B9",
"107 c #D6C3BC",
"108 c #CFCAC2",
"109 c #D2CDC5",
"110 c #D5CAC2",
"111 c #D4CDC5",
"112 c #D4D0C8",
"113 c black",
"114 c black",
"115 c black",
"116 c black",
"117 c black",
"118 c black",
"119 c black",
"120 c black",
"121 c black",
"122 c black",
"123 c black",
"124 c black",
"125 c black",
"126 c black",
"127 c black",
"128 c black",
"129 c black",
"130 c black",
"131 c black",
"132 c black",
"133 c black",
"134 c black",
"135 c black",
"136 c black",
"137 c black",
"138 c black",
"139 c black",
"140 c black",
"141 c black",
"142 c black",
"143 c black",
"144 c black",
"145 c black",
"146 c black",
"147 c black",
"148 c black",
"149 c black",
"150 c black",
"151 c black",
"152 c black",
"153 c black",
"154 c black",
"155 c black",
"156 c black",
"157 c black",
"158 c black",
"159 c black",
"160 c black",
"161 c black",
"162 c black",
"163 c black",
"164 c black",
"165 c black",
"166 c black",
"167 c black",
"168 c black",
"169 c black",
"170 c black",
"171 c black",
"172 c black",
"173 c black",
"174 c black",
"175 c black",
"176 c black",
"177 c black",
"178 c black",
"179 c black",
"180 c black",
"181 c black",
"182 c black",
"183 c black",
"184 c black",
"185 c black",
"186 c black",
"187 c black",
"188 c black",
"189 c black",
"190 c black",
"191 c black",
"192 c black",
"193 c black",
"194 c black",
"195 c black",
"196 c black",
"197 c black",
"198 c black",
"199 c black",
"200 c black",
"201 c black",
"202 c black",
"203 c black",
"204 c black",
"205 c black",
"206 c black",
"207 c black",
"208 c black",
"209 c black",
"210 c black",
"211 c black",
"212 c black",
"213 c black",
"214 c black",
"215 c black",
"216 c black",
"217 c black",
"218 c black",
"219 c black",
"220 c black",
"221 c black",
"222 c black",
"223 c black",
"224 c black",
"225 c black",
"226 c black",
"227 c black",
"228 c black",
"229 c black",
"230 c black",
"231 c black",
"232 c black",
"233 c black",
"234 c black",
"235 c black",
"236 c black",
"237 c black",
"238 c black",
"239 c black",
"240 c black",
"241 c black",
"242 c black",
"243 c black",
"244 c black",
"245 c black",
"246 c black",
"247 c black",
"248 c black",
"249 c black",
"250 c black",
"251 c black",
"252 c black",
"253 c black",
"254 c black",
"255 c black",
"112112112112112112112112112112112112112112112112112112112112112112112112112112112112112112112112112112112112112112112112112112112112112",
"112112112112112112112112112112112112112112112112112112112112112112112112112112112112112112112112112112112112112112112112112112112112112",
"112112112112112112112112112112112112112112112112112112112112112112112112112112112112112112112112112112112112112112112112112112112112112",
"112112069112112112112112063111112112112112112112112112112112112112112112112112112112112112112112112112112112112112112112112112112112112",
"112112058102112112112112055107112112085047047054084112112112112112112112112112112112112112112112112112112112112112112112112047112112112",
"112112112055065112111062068112112112047017047039015013112112112112112112112112112112112112112112112112112112112112112112112017112112112",
"112112112102055100056056112112112112047017112112112000112112036000000021109013087112112000112105000000000089047010000000034017000000112",
"112112112112066064055071112112112112047017112112097000112112000038041000112048039112112000112040019041020031047017026047076017047047112",
"112112112112112055093112112112112112047017000004003112112051026047047024082112000112043047051000047047047003047017112112112017112112112",
"112112112112066064055071112112112112047017112098026051112050026047047047089112022039000112050000047047047047047017112112112017112112112",
"112112112102055100056056112112112112047017112112105000112084011112112108089112050000000112084000097112112077047017112112112002112112112",
"112112112055065112111062068112112112047010112112112105005088040000000001080112112000054112112105000000000002047010112112112026000000112",
"112112058102112112112112055107112112112112112112112112112112112112112112112112112112112112112112112112112112112112112112112112112112112",
"112112069112112112112112063111112112112112112112112112112112112112112112112112112112112112112112112112112112112112112112112112112112112",
"112112112112112112112112112112112112112112112112112112112112112112112112112112112112112112112112112112112112112112112112112112112112112"
};
