/* XPM */
static const char *selected[] = {
/* columns rows colors chars-per-pixel */
"16 16 46 1",
"  c #010400",
". c #040702",
"X c #080100",
"o c #000902",
"O c #080B07",
"+ c #0E0806",
"@ c #000508",
"# c #011600",
"$ c #071509",
"% c #1A1615",
"& c #191B18",
"* c #012000",
"= c #012A00",
"- c #003402",
"; c #003B02",
": c #282927",
"> c #24282A",
", c #006002",
"< c #007100",
"1 c #007900",
"2 c #645F5E",
"3 c #5F615F",
"4 c #5F6466",
"5 c #6B6665",
"6 c #7D7877",
"7 c #757A7C",
"8 c #797B78",
"9 c #078103",
"0 c #0F8C04",
"q c #18811D",
"w c #05B107",
"e c #24BC07",
"r c #00FD00",
"t c green",
"y c #00FD0D",
"u c #21FA06",
"i c #68E06C",
"p c #898B88",
"a c #8E8988",
"s c #8E908D",
"d c #BFC2BE",
"f c #CAC5C3",
"g c #D0D2CF",
"h c #D3D5D2",
"j c #D5D7D4",
"k c #F8FAF7",
/* pixels */
"tttttttttttttttt",
"ttttttgddgtttttt",
"tttta:XX+.:stttt",
"ttt5@@o**.@X5ttt",
"tt7@ =,ee,=@X7tt",
"tj&X-1keee1-@%ht",
"t6@#ekkeeei<#X8t",
"t4 ;0eeeeeir;@2t",
"t3 ;eeeweir9;@4t",
"t6 $eeweiyr9# 6t",
"th&X-qiurr9- &ht",
"tt8@X=,999= X7tt",
"ttt4+X.**o @5ttt",
"tttts>O...:ptttt",
"ttttttfddgtttttt",
"tttttttttttttttt"
};
