/* XPM */
static const char *tbSpecial[] = {
"45 15 256 3",
"000 c black",
"001 c #030202",
"002 c gray1",
"003 c #060606",
"004 c #090909",
"005 c #0A0909",
"006 c #0D0D0C",
"007 c gray5",
"008 c #10100F",
"009 c #131312",
"010 c #171615",
"011 c #171715",
"012 c #1A1A18",
"013 c #1A1A19",
"014 c #1B1A19",
"015 c #20201F",
"016 c #242322",
"017 c #242422",
"018 c #272725",
"019 c #272726",
"020 c #282725",
"021 c #2E2D2B",
"022 c #31302F",
"023 c #383735",
"024 c #3F3E3B",
"025 c #42413E",
"026 c #4F4E4B",
"027 c #504E4B",
"028 c #53514E",
"029 c #565451",
"030 c #565551",
"031 c #595854",
"032 c #5D5B57",
"033 c #605E5A",
"034 c #63615E",
"035 c #6A6864",
"036 c #6D6B67",
"037 c #706E6A",
"038 c #74726D",
"039 c #777570",
"040 c #7E7B77",
"041 c #817F7A",
"042 c #85827D",
"043 c #888580",
"044 c #8B8983",
"045 c #8F8C86",
"046 c #928F8A",
"047 c #989690",
"048 c #9C9993",
"049 c #9F9C96",
"050 c #A29F99",
"051 c #A6A39C",
"052 c #A9A6A0",
"053 c #ACA9A3",
"054 c #B6B3AC",
"055 c #BAB6AF",
"056 c #C0BDB5",
"057 c #C4C0B9",
"058 c #C7C3BC",
"059 c #CAC7BF",
"060 c #CECAC2",
"061 c #D1CDC5",
"062 c #D4D0C8",
"063 c black",
"064 c black",
"065 c black",
"066 c black",
"067 c black",
"068 c black",
"069 c black",
"070 c black",
"071 c black",
"072 c black",
"073 c black",
"074 c black",
"075 c black",
"076 c black",
"077 c black",
"078 c black",
"079 c black",
"080 c black",
"081 c black",
"082 c black",
"083 c black",
"084 c black",
"085 c black",
"086 c black",
"087 c black",
"088 c black",
"089 c black",
"090 c black",
"091 c black",
"092 c black",
"093 c black",
"094 c black",
"095 c black",
"096 c black",
"097 c black",
"098 c black",
"099 c black",
"100 c black",
"101 c black",
"102 c black",
"103 c black",
"104 c black",
"105 c black",
"106 c black",
"107 c black",
"108 c black",
"109 c black",
"110 c black",
"111 c black",
"112 c black",
"113 c black",
"114 c black",
"115 c black",
"116 c black",
"117 c black",
"118 c black",
"119 c black",
"120 c black",
"121 c black",
"122 c black",
"123 c black",
"124 c black",
"125 c black",
"126 c black",
"127 c black",
"128 c black",
"129 c black",
"130 c black",
"131 c black",
"132 c black",
"133 c black",
"134 c black",
"135 c black",
"136 c black",
"137 c black",
"138 c black",
"139 c black",
"140 c black",
"141 c black",
"142 c black",
"143 c black",
"144 c black",
"145 c black",
"146 c black",
"147 c black",
"148 c black",
"149 c black",
"150 c black",
"151 c black",
"152 c black",
"153 c black",
"154 c black",
"155 c black",
"156 c black",
"157 c black",
"158 c black",
"159 c black",
"160 c black",
"161 c black",
"162 c black",
"163 c black",
"164 c black",
"165 c black",
"166 c black",
"167 c black",
"168 c black",
"169 c black",
"170 c black",
"171 c black",
"172 c black",
"173 c black",
"174 c black",
"175 c black",
"176 c black",
"177 c black",
"178 c black",
"179 c black",
"180 c black",
"181 c black",
"182 c black",
"183 c black",
"184 c black",
"185 c black",
"186 c black",
"187 c black",
"188 c black",
"189 c black",
"190 c black",
"191 c black",
"192 c black",
"193 c black",
"194 c black",
"195 c black",
"196 c black",
"197 c black",
"198 c black",
"199 c black",
"200 c black",
"201 c black",
"202 c black",
"203 c black",
"204 c black",
"205 c black",
"206 c black",
"207 c black",
"208 c black",
"209 c black",
"210 c black",
"211 c black",
"212 c black",
"213 c black",
"214 c black",
"215 c black",
"216 c black",
"217 c black",
"218 c black",
"219 c black",
"220 c black",
"221 c black",
"222 c black",
"223 c black",
"224 c black",
"225 c black",
"226 c black",
"227 c black",
"228 c black",
"229 c black",
"230 c black",
"231 c black",
"232 c black",
"233 c black",
"234 c black",
"235 c black",
"236 c black",
"237 c black",
"238 c black",
"239 c black",
"240 c black",
"241 c black",
"242 c black",
"243 c black",
"244 c black",
"245 c black",
"246 c black",
"247 c black",
"248 c black",
"249 c black",
"250 c black",
"251 c black",
"252 c black",
"253 c black",
"254 c black",
"255 c black",
"062062062062062062062062062062062062062062062062062062062062062062062062062062062062062062062062062062062062062062062062062062062062062",
"062062062062062062062062062062062062062062062062062062062062062062062062062062062062062062062062062062062062062062062062062062062062062",
"062062062062062062062062062062062062062062047034036052061062049035035038048061062062062062048036032042060062049035053062062062062062062",
"062062062062062062062062062062062062061023000000000000002045035007000000000025062062054021000000000000009058035007042062062062062062062",
"062062062062062062062062062062062062041006009027027012000042035014025029006005049060020002012031031017000043035014042062062062062062062",
"062062062010000000016054062062062062035000023052059062046053035014042062028000039045005013058062062062046047035014042062062062062062062",
"062062040000000000000000062062062062055002000000000024056062035014025026005003051033000036062062062062062062035014042062062062062062062",
"062062031000000000000000062062062062062054026006000000011060035014000000000030062034000037062062062062062062035014042062062062062062062",
"062062042000000000000000062062062062049046062062054022000042035014025038048062062045001012057062062061043053035014042062062062062062062",
"062062062013000000018054062062062062035001012026025003001052035014042062062062062060015004011029029013005042035014025035035035053062062",
"062062062058042033060062062062062062040002000000000000028062035007042062062062062062053019000000000003008049035007000000000000042062062",
"062062062062062062062062062062062062062059046032035050062062049035053062062062062062062062048035033044060062049035035035035035053062062",
"062062062062062062062062062062062062062062062062062062062062062062062062062062062062062062062062062062062062062062062062062062062062062",
"062062062062062062062062062062062062062062062062062062062062062062062062062062062062062062062062062062062062062062062062062062062062062",
"062062062062062062062062062062062062062062062062062062062062062062062062062062062062062062062062062062062062062062062062062062062062062"
};
