/* XPM */
static const char *tbSOBJ[] = {
"45 15 256 3",
"000 c black",
"001 c #030202",
"002 c gray1",
"003 c #060606",
"004 c #090909",
"005 c #0D0C0C",
"006 c #0D0D0C",
"007 c gray5",
"008 c #100F0F",
"009 c #10100F",
"010 c #141312",
"011 c #141313",
"012 c #171615",
"013 c #171715",
"014 c #1A1A19",
"015 c #1B1A19",
"016 c #242322",
"017 c #242422",
"018 c #272725",
"019 c #2B2A28",
"020 c #2E2D2B",
"021 c #2E2D2C",
"022 c #32302F",
"023 c #353332",
"024 c #3E3D3B",
"025 c #3F3D3B",
"026 c #3E3E3B",
"027 c #3F3E3B",
"028 c #42413E",
"029 c #454441",
"030 c #4C4B47",
"031 c #4C4A48",
"032 c #4C4B48",
"033 c #4F4E4B",
"034 c #52514E",
"035 c #53514E",
"036 c #565451",
"037 c #595854",
"038 c #5D5B57",
"039 c #605E5A",
"040 c #605E5B",
"041 c #63615E",
"042 c #63625E",
"043 c #64615E",
"044 c #64625D",
"045 c #676561",
"046 c #6A6864",
"047 c #6D6B67",
"048 c #716E6A",
"049 c #74726D",
"050 c #777570",
"051 c #7B7874",
"052 c #7E7B77",
"053 c #84827D",
"054 c #85827D",
"055 c #87847F",
"056 c #888580",
"057 c #8B8983",
"058 c #8F8C86",
"059 c #928F8A",
"060 c #95928D",
"061 c #9C9993",
"062 c #9F9C96",
"063 c #A29F99",
"064 c #A6A39C",
"065 c #A9A6A0",
"066 c #ACA9A3",
"067 c #B0ACA6",
"068 c #B3B0A9",
"069 c #B6B3AC",
"070 c #BAB6AF",
"071 c #BDB9B2",
"072 c #C0BDB5",
"073 c #C7C3BC",
"074 c #CAC7BF",
"075 c #CECAC2",
"076 c #D1CDC5",
"077 c #D4D0C8",
"078 c black",
"079 c black",
"080 c black",
"081 c black",
"082 c black",
"083 c black",
"084 c black",
"085 c black",
"086 c black",
"087 c black",
"088 c black",
"089 c black",
"090 c black",
"091 c black",
"092 c black",
"093 c black",
"094 c black",
"095 c black",
"096 c black",
"097 c black",
"098 c black",
"099 c black",
"100 c black",
"101 c black",
"102 c black",
"103 c black",
"104 c black",
"105 c black",
"106 c black",
"107 c black",
"108 c black",
"109 c black",
"110 c black",
"111 c black",
"112 c black",
"113 c black",
"114 c black",
"115 c black",
"116 c black",
"117 c black",
"118 c black",
"119 c black",
"120 c black",
"121 c black",
"122 c black",
"123 c black",
"124 c black",
"125 c black",
"126 c black",
"127 c black",
"128 c black",
"129 c black",
"130 c black",
"131 c black",
"132 c black",
"133 c black",
"134 c black",
"135 c black",
"136 c black",
"137 c black",
"138 c black",
"139 c black",
"140 c black",
"141 c black",
"142 c black",
"143 c black",
"144 c black",
"145 c black",
"146 c black",
"147 c black",
"148 c black",
"149 c black",
"150 c black",
"151 c black",
"152 c black",
"153 c black",
"154 c black",
"155 c black",
"156 c black",
"157 c black",
"158 c black",
"159 c black",
"160 c black",
"161 c black",
"162 c black",
"163 c black",
"164 c black",
"165 c black",
"166 c black",
"167 c black",
"168 c black",
"169 c black",
"170 c black",
"171 c black",
"172 c black",
"173 c black",
"174 c black",
"175 c black",
"176 c black",
"177 c black",
"178 c black",
"179 c black",
"180 c black",
"181 c black",
"182 c black",
"183 c black",
"184 c black",
"185 c black",
"186 c black",
"187 c black",
"188 c black",
"189 c black",
"190 c black",
"191 c black",
"192 c black",
"193 c black",
"194 c black",
"195 c black",
"196 c black",
"197 c black",
"198 c black",
"199 c black",
"200 c black",
"201 c black",
"202 c black",
"203 c black",
"204 c black",
"205 c black",
"206 c black",
"207 c black",
"208 c black",
"209 c black",
"210 c black",
"211 c black",
"212 c black",
"213 c black",
"214 c black",
"215 c black",
"216 c black",
"217 c black",
"218 c black",
"219 c black",
"220 c black",
"221 c black",
"222 c black",
"223 c black",
"224 c black",
"225 c black",
"226 c black",
"227 c black",
"228 c black",
"229 c black",
"230 c black",
"231 c black",
"232 c black",
"233 c black",
"234 c black",
"235 c black",
"236 c black",
"237 c black",
"238 c black",
"239 c black",
"240 c black",
"241 c black",
"242 c black",
"243 c black",
"244 c black",
"245 c black",
"246 c black",
"247 c black",
"248 c black",
"249 c black",
"250 c black",
"251 c black",
"252 c black",
"253 c black",
"254 c black",
"255 c black",
"077077077077077077077077077077077077077077077077077077077077077077077077077077077077077077077077077077077077077077077077077077077077077",
"077077077077077077077077077077077077077077077077077077077077077077077077077077077077077077077077077077077077077077077077077077077077077",
"077077077077077077077077077077077077077077077077077077077077077077077077077077077077077077077077077077077077077077077077077077077077077",
"077077077077077077077077077077077077077077077077077077077077077077077077077077077077077077077077077077077077077077077077077077077077077",
"077077077077077077077077077077077077077077077077077077077077077077077077077077077077077077077077077077077077077077077077077077077077077",
"077077077012000000016069077077077077077077002000000000077069000000000072046007000017074077000000054077077077077077077077077077077077077",
"077077052000000000000000077077077077077038045077077056064000072077067002046015077000052077077046054077077077077077077077077077077077077",
"077077037000000000000000077077077077077057009032049077049000077077077000046015038002069077077046054077077077077077077077077077077077077",
"077077054000000000000000077077077077077077073036022000050000077077077000046015046004002077077046054077077077077077077077077077077077077",
"077077077014000000018069077077077077077046010044031003077023006035003033046015046003000046036004062077077077077077077077077077077077077",
"077077077073054039075077077077077077077049000000000053077069000000000072046007000000039000000000077077077077077077077077077077077077077",
"077077077077077077077077077077077077077077077077077077077077077077077077077077077077077077077077077077077077077077077077077077077077077",
"077077077077077077077077077077077077077077077077077077077077077077077077077077077077077077077077077077077077077077077077077077077077077",
"077077077077077077077077077077077077077077077077077077077077077077077077077077077077077077077077077077077077077077077077077077077077077",
"077077077077077077077077077077077077077077077077077077077077077077077077077077077077077077077077077077077077077077077077077077077077077"
};
