/* XPM */
static const char *suggest[] = {
/* columns rows colors chars-per-pixel */
"16 16 73 1",
"  c black",
". c #000100",
"X c #000200",
"o c #000400",
"O c #000700",
"+ c #000900",
"@ c #000A00",
"# c #000D00",
"$ c #000E00",
"% c #001300",
"& c #011701",
"* c #001800",
"= c #001A00",
"- c #001B00",
"; c #041D04",
": c #061F06",
"> c #002500",
", c #002600",
"< c #0A220A",
"1 c #0E240E",
"2 c #003800",
"3 c #003900",
"4 c #023B02",
"5 c #003F00",
"6 c #004000",
"7 c #014101",
"8 c #034203",
"9 c #044304",
"0 c #054405",
"q c #074507",
"w c #084608",
"e c #0A470A",
"r c #0D440D",
"t c #0E4A0E",
"y c #0F4B0F",
"u c #114D11",
"i c #124D12",
"p c #134E13",
"a c #1D561D",
"s c #205820",
"d c #2B602B",
"f c #2E622E",
"g c #326532",
"h c #437243",
"j c #487648",
"k c #4A774A",
"l c #5E865E",
"z c #6B906B",
"x c #7F9F7F",
"c c #83A283",
"v c #8CA98C",
"b c #9FB79F",
"n c #A8BEA8",
"m c #ACC1AC",
"M c #ADC2AD",
"N c #B1C5B1",
"B c #B7C9B7",
"V c #BBCCBB",
"C c #BCCDBC",
"Z c #C8D6C8",
"A c #D1DDD1",
"S c #D3DED3",
"D c #DBE4DB",
"F c #DDE6DD",
"G c #DFE7DF",
"H c #E4EBE4",
"J c #F0F4F0",
"K c #F1F5F1",
"L c #F5F8F5",
"P c #F8FAF8",
"I c #F9FBF9",
"U c #FEFEFE",
"Y c gray100",
/* pixels */
"YYYYYYYYYYYYYYYY",
"YLSAAAAAAAAAASPY",
"YcqeeeeeeeeeewMY",
"YVt62=O .#>56uGY",
"YIhwO +5,  -0zYY",
"YYBp% $65  XuFYY",
"YYKf96663  &kUYY",
"YYYbi663% @rZYYY",
"YYYKd86 o*4jUYYY",
"YYYYcy6 66eNYYYY",
"YYYYHs7667gIYYYY",
"YYYYYx:XX;mYYYYY",
"YYYYYD<XX1LYYYYY",
"YYYYYUleqvYYYYYY",
"YYYYYYStaJYYYYYY",
"YYYYYYUnCYYYYYYY"
};
