/* XPM */
static const char *top_level_selected[] = {
/* columns rows colors chars-per-pixel */
"16 16 44 1",
"  c #010400",
". c #040702",
"X c #080100",
"o c #080B07",
"O c #0E0806",
"+ c #000508",
"@ c #040B0E",
"# c #160104",
"$ c #020C14",
"% c #1A1615",
"& c #15191A",
"* c #210000",
"= c #2A0000",
"- c #340100",
"; c #3B0000",
": c #2A2625",
"> c #24282A",
", c #5A0306",
"< c #600102",
"1 c #730001",
"2 c #790000",
"3 c #645F5E",
"4 c #5F615F",
"5 c #6B6665",
"6 c #797473",
"7 c #7D7877",
"8 c #757A7C",
"9 c #797B78",
"0 c #800000",
"q c #910205",
"w c #81100E",
"e c #AF040B",
"r c #BD090C",
"t c #FE0005",
"y c #E06C6E",
"u c green",
"i c #8E8988",
"p c #8E908D",
"a c #C2BCBB",
"s c #BFC2BE",
"d c #D0D2CF",
"f c #D3D5D2",
"g c #F8FAF7",
"h c #FEFFFC",
/* pixels */
"uuuuuuuuuuuuuuuu",
"uuuuuudssduuuuuu",
"uuuup:OXXX:puuuu",
"uuu5X$X**XXX5uuu",
"uu8X+=,rr<=X+6uu",
"uf&X-0gerr2-+%fu",
"u7X#rghrrry1#X7u",
"u4 ;qrrerryt;+4u",
"u3 ;errreyt0;+3u",
"u7X#rrerytt0#+9u",
"uf&O-wyttt0-X%fu",
"uu6+ =<000=X+7uu",
"uuu5X+.**X+X5uuu",
"uuuui:o@.O>puuuu",
"uuuuuufsaduuuuuu",
"uuuuuuuuuuuuuuuu"
};
