/* XPM */
static const char *top_level_selected_open[] = {
/* columns rows colors chars-per-pixel */
"16 16 69 1",
"  c #1A1615",
". c #15191A",
"X c #191B18",
"o c #231F1E",
"O c #351A1B",
"+ c #3D1A1A",
"@ c #1F211E",
"# c #262221",
"$ c #2A2625",
"% c #24282A",
"& c #2C2E2B",
"* c #3F2827",
"= c #313331",
"- c #383C3E",
"; c #551110",
": c #511717",
"> c #472E2F",
", c #4C3031",
"< c #4C3735",
"1 c #6F2120",
"2 c #732D2F",
"3 c #484947",
"4 c #514C4B",
"5 c #494E50",
"6 c #595453",
"7 c #50565C",
"8 c #605C5A",
"9 c #645F5E",
"0 c #5F6466",
"q c #646563",
"w c #6B6665",
"e c #696B68",
"r c #797473",
"t c #7D7877",
"y c #73777A",
"u c #757A7C",
"i c #800000",
"p c #8B0F0D",
"a c #910205",
"s c #A50505",
"d c #A1000A",
"f c #AF040B",
"g c #BD090C",
"h c #C20005",
"j c #F00006",
"k c #FE0005",
"l c #F5010B",
"z c #FE0012",
"x c #FF1E1E",
"c c #837E7D",
"v c #E04C4A",
"b c #E95D5F",
"n c #E66260",
"m c green",
"M c #828481",
"N c #878986",
"B c #8E8988",
"V c #8E908D",
"C c #939592",
"Z c #979895",
"A c #A39E9D",
"S c #9CA1A3",
"D c #B5AFAE",
"F c #B9B4B3",
"G c #BDB7B6",
"H c #B2B7BA",
"J c #C2BCBB",
"K c #F3BEBD",
"L c #F8C8C6",
/* pixels */
"DFGGJJmmmmJGGFDX",
"HCSSSASZASSSSCB%",
"FSSSV96446qNASC#",
"GAAt5@O:;O#7cAZ$",
"FSM4o*igfd>$8uA=",
"DA7#>1Kggf1>$0A=",
"mt4OgKLgggvd+8cm",
"mr3;fggfggbh:0cm",
"mr4;gggggnkp:0um",
"mc7Ogfggnxjf+9Nm",
"FB8$,2vlzj2<$yB&",
"HAc6$<adsf<%0MA%",
"FZSu8%O::*%wcAV#",
"FZASBe008wyNZSB@",
"HBCBSABVVCBSBBV ",
"Fo%$%-mmmm%$%#.."
};
