/* XPM */
static const char *top_level_unselected[] = {
/* columns rows colors chars-per-pixel */
"16 16 39 1",
"  c #010400",
". c #080100",
"X c #0E0806",
"o c #000508",
"O c #040B0E",
"+ c #160104",
"@ c #020C14",
"# c #1A1615",
"$ c #15191A",
"% c #210000",
"& c #2A0000",
"* c #340100",
"= c #3B0000",
"- c #2A2625",
"; c #24282A",
": c #5A0306",
"> c #600102",
", c #6A0001",
"< c #660608",
"1 c #730001",
"2 c #790000",
"3 c #760E0E",
"4 c #645F5E",
"5 c #5F615F",
"6 c #6B6665",
"7 c #797473",
"8 c #7D7877",
"9 c #757A7C",
"0 c #797B78",
"q c #800000",
"w c green",
"e c #8E908D",
"r c #B5AFAE",
"t c #ACB1B3",
"y c #C2BCBB",
"u c #BFC2BE",
"i c #B9BEC0",
"p c #D0D2CF",
"a c #D3D5D2",
/* pixels */
"wwwwwwwwwwwwwwww",
"wwwwwwpuupwwwwww",
"wwwwe-X...-ewwww",
"www6.@.%%...6www",
"ww9.o&:<<>&.o7ww",
"wa$.*qt<<<2*o#aw",
"w8.+1tr<<,<1+.8w",
"w5 =,><<<,<q=o5w",
"w4 =<<<,<<qq=o4w",
"w0.+1,><>qq1+o0w",
"wa# *3<,qq2* #aw",
"ww9 .&>22>&.o8ww",
"www6 o %%.o.6www",
"wwwwe-OOXX;ewwww",
"wwwwwwpyipwwwwww",
"wwwwwwwwwwwwwwww"
};
