/* XPM */
static const char *unselected_open[] = {
/* columns rows colors chars-per-pixel */
"16 16 74 1",
"  c #040702",
". c #000902",
"X c #071509",
"o c #1F211E",
"O c #1E3C18",
"+ c #222421",
"@ c #2A2625",
"# c #282927",
"$ c #273D26",
"% c #313331",
"& c #363735",
"* c #3E3A39",
"= c #3C3D3B",
"- c #383C3E",
"; c #413D3C",
": c #044F08",
"> c #025906",
", c #18560F",
"< c #006002",
"1 c #11690E",
"2 c #007100",
"3 c #0F6A18",
"4 c #007611",
"5 c #167410",
"6 c #206C1B",
"7 c #275126",
"8 c #3E403D",
"9 c #305230",
"0 c #277129",
"q c #287C29",
"w c #484947",
"e c #514C4B",
"r c #4B5B4A",
"t c #494E50",
"y c #515350",
"u c #595453",
"i c #50565C",
"p c #5B5D5A",
"a c #645F5E",
"s c #5F615F",
"d c #797473",
"f c #73777A",
"g c #757A7C",
"h c #797B78",
"j c #837E7D",
"k c #078103",
"l c #028112",
"z c #18811D",
"x c #358035",
"c c #348E32",
"v c green",
"b c #7E807D",
"n c #828481",
"m c #878986",
"M c #898B88",
"N c #8E8988",
"B c #A39E9D",
"V c #9CA1A3",
"C c #A2A4A1",
"Z c #A6A8A5",
"A c #AAACA9",
"S c #ADAFAC",
"D c #B5AFAE",
"F c #B0B2AF",
"G c #ACB1B3",
"H c #B2B4B1",
"J c #B5B7B4",
"K c #B9B4B3",
"L c #B7B9B6",
"P c #B2B7BA",
"I c #BBBDBA",
"U c #BFC2BE",
"Y c #B9BEC0",
"T c #C5C7C4",
/* pixels */
"JLIUSTvvvvTTUIL#",
"YBBDDKBCVBDKDBB&",
"YVGGNi;;--imPGB-",
"UDGh-8y$$.8-fDGe",
"YKj=89x60:9=-jGy",
"TZt89zS61>z78tZa",
"vn-rcDG116qcr*gv",
"vd&70311116z9&gv",
"vf*7663111kl7*fv",
"vj-X>><1125>X-bv",
"TCw+O5,3l25OotVs",
"TKg=oO:z4:Oo8jGu",
"YDHg-o $$.+*hKGw",
"UVDFMi8**-iNGAC;",
"IVBGFDACCZGKDBV%",
"K%-eupvvvvptw;%@"
};
