/* XPM */
static const char *unselectable_open[] = {
/* columns rows colors chars-per-pixel */
"16 16 11 1",
"  c green",
". c #888888",
"X c #888A88",
"o c #8A8B8A",
"O c #8D8F8D",
"+ c #919391",
"@ c #9FA19F",
"# c #AFB1AF",
"$ c #E9E9E9",
"% c #F1F2F1",
"& c gray100",
/* pixels */
"......$  $......",
"......&  &......",
".....@&  &@.....",
"...Xo&&  &&oX...",
"...o%&    &%o...",
"O+#&&      &&#+O",
"&&&          &&&",
"                ",
"                ",
"&&&          &&&",
"O+#&&      &&#+O",
"...o%&    &%o...",
"...Xo&&  &&oX...",
".....@&  &@.....",
"......&  &......",
"......$  $......"
};
