/* XPM */
static const char *unselected[] = {
/* columns rows colors chars-per-pixel */
"16 16 37 1",
"  c #010400",
". c #040702",
"X c #080100",
"o c #000902",
"O c #0E0806",
"+ c #000508",
"@ c #011600",
"# c #1A1615",
"$ c #191B18",
"% c #012000",
"& c #012A00",
"* c #003402",
"= c #003B02",
"- c #282927",
"; c #006002",
": c #006600",
"> c #11690E",
", c #007100",
"< c #007900",
"1 c #645F5E",
"2 c #5F615F",
"3 c #5F6466",
"4 c #6B6665",
"5 c #7D7877",
"6 c #757A7C",
"7 c #797B78",
"8 c #078103",
"9 c green",
"0 c #898B88",
"q c #8E8988",
"w c #8E908D",
"e c #ACB1B3",
"r c #BFC2BE",
"t c #B9BEC0",
"y c #D0D2CF",
"u c #D3D5D2",
"i c #D5D7D4",
/* pixels */
"9999999999999999",
"999999yrry999999",
"9999q-XXO.-w9999",
"9994++o%%.+X4999",
"996+ &;:>;&+X699",
"9i$X*<e:;:<*+#u9",
"95+@<ee::::,@X79",
"93 =;::::::8=+19",
"92 =;;>>::88=+39",
"95 @,:::;88,@ 59",
"9u$.*<:>88<* $u9",
"996X.&;<<:& X699",
"9993++o%%o +4999",
"9999w-.  .-09999",
"999999yrtu999999",
"9999999999999999"
};
