/* XPM */
static const char *tbWeapon[] = {
"45 15 256 3",
"000 c black",
"001 c #030202",
"002 c gray1",
"003 c #060606",
"004 c #090909",
"005 c #0A0909",
"006 c #0A0A09",
"007 c #0C0C0C",
"008 c #0D0C0C",
"009 c #0D0D0C",
"010 c gray5",
"011 c #100F0F",
"012 c #10100F",
"013 c #131312",
"014 c #141312",
"015 c #141313",
"016 c #171615",
"017 c #171715",
"018 c #171616",
"019 c #171716",
"020 c #1A1919",
"021 c #1A1A18",
"022 c #1A1A19",
"023 c #1B1A19",
"024 c #20201F",
"025 c #21211F",
"026 c #242322",
"027 c #242422",
"028 c #272725",
"029 c #2B2A28",
"030 c #2B2A29",
"031 c #2E2D2C",
"032 c #31302F",
"033 c #31312F",
"034 c #353332",
"035 c #343431",
"036 c #383735",
"037 c #3B3A38",
"038 c #42413E",
"039 c #454441",
"040 c #454442",
"041 c #494744",
"042 c #4C4A48",
"043 c #4F4E4B",
"044 c #53514E",
"045 c #565451",
"046 c #565551",
"047 c #595854",
"048 c #5D5B57",
"049 c #605E5A",
"050 c #63615E",
"051 c #6A6864",
"052 c #6D6B67",
"053 c #74726D",
"054 c #777570",
"055 c #7B7874",
"056 c #7E7B77",
"057 c #817F7A",
"058 c #85827D",
"059 c #8B8983",
"060 c #8F8C86",
"061 c #95928D",
"062 c #989690",
"063 c #9C9993",
"064 c #9F9C96",
"065 c #A29F99",
"066 c #A6A39C",
"067 c #A9A6A0",
"068 c #ACA9A3",
"069 c #B3B0A9",
"070 c #B6B3AC",
"071 c #BAB6AF",
"072 c #C0BDB5",
"073 c #C4C0B9",
"074 c #C7C3BC",
"075 c #CECAC2",
"076 c #D1CDC5",
"077 c #D4D0C8",
"078 c black",
"079 c black",
"080 c black",
"081 c black",
"082 c black",
"083 c black",
"084 c black",
"085 c black",
"086 c black",
"087 c black",
"088 c black",
"089 c black",
"090 c black",
"091 c black",
"092 c black",
"093 c black",
"094 c black",
"095 c black",
"096 c black",
"097 c black",
"098 c black",
"099 c black",
"100 c black",
"101 c black",
"102 c black",
"103 c black",
"104 c black",
"105 c black",
"106 c black",
"107 c black",
"108 c black",
"109 c black",
"110 c black",
"111 c black",
"112 c black",
"113 c black",
"114 c black",
"115 c black",
"116 c black",
"117 c black",
"118 c black",
"119 c black",
"120 c black",
"121 c black",
"122 c black",
"123 c black",
"124 c black",
"125 c black",
"126 c black",
"127 c black",
"128 c black",
"129 c black",
"130 c black",
"131 c black",
"132 c black",
"133 c black",
"134 c black",
"135 c black",
"136 c black",
"137 c black",
"138 c black",
"139 c black",
"140 c black",
"141 c black",
"142 c black",
"143 c black",
"144 c black",
"145 c black",
"146 c black",
"147 c black",
"148 c black",
"149 c black",
"150 c black",
"151 c black",
"152 c black",
"153 c black",
"154 c black",
"155 c black",
"156 c black",
"157 c black",
"158 c black",
"159 c black",
"160 c black",
"161 c black",
"162 c black",
"163 c black",
"164 c black",
"165 c black",
"166 c black",
"167 c black",
"168 c black",
"169 c black",
"170 c black",
"171 c black",
"172 c black",
"173 c black",
"174 c black",
"175 c black",
"176 c black",
"177 c black",
"178 c black",
"179 c black",
"180 c black",
"181 c black",
"182 c black",
"183 c black",
"184 c black",
"185 c black",
"186 c black",
"187 c black",
"188 c black",
"189 c black",
"190 c black",
"191 c black",
"192 c black",
"193 c black",
"194 c black",
"195 c black",
"196 c black",
"197 c black",
"198 c black",
"199 c black",
"200 c black",
"201 c black",
"202 c black",
"203 c black",
"204 c black",
"205 c black",
"206 c black",
"207 c black",
"208 c black",
"209 c black",
"210 c black",
"211 c black",
"212 c black",
"213 c black",
"214 c black",
"215 c black",
"216 c black",
"217 c black",
"218 c black",
"219 c black",
"220 c black",
"221 c black",
"222 c black",
"223 c black",
"224 c black",
"225 c black",
"226 c black",
"227 c black",
"228 c black",
"229 c black",
"230 c black",
"231 c black",
"232 c black",
"233 c black",
"234 c black",
"235 c black",
"236 c black",
"237 c black",
"238 c black",
"239 c black",
"240 c black",
"241 c black",
"242 c black",
"243 c black",
"244 c black",
"245 c black",
"246 c black",
"247 c black",
"248 c black",
"249 c black",
"250 c black",
"251 c black",
"252 c black",
"253 c black",
"254 c black",
"255 c black",
"077077077077077077077077077077077077077077077077077077077077077077077077077077077077077077077077077077077077077077077077077077077077077",
"077077077077077077077077077077077077077077077077077077077077077077077077077077077077077077077077077077077077077077077077077077077077077",
"077077077077077077077077077077077059051067077063049066077063051061077077077077077077077077077077077077077077077077077077077077077077077",
"077077077077077077077077077077077051004045077040000043077039002056077077077077077077077077077077077077077077077077077077077077077077077",
"077077077077077077077077077077077064014025077024000017077027000069077059048057075077077070053044052072077064051057048055076077077077077",
"077077077016000000026070077077077075009008071000000000068000012077037000000000031077077051000000000021073051010000002015037077077077077",
"077077056000000000000000077077077077034013049000005000044000038061000000000000000065077063037019000003060051023017044005003067077077077",
"077077047000000000000000077077077077051016009000047000003000054049000000000000000058073032000000000023058051023058077041002055077077077",
"077077058000000000000000077077077077064020000002071000000000067049006029051051032058054001011039030023058051023058077036012056077077077",
"077077077022000000028070077077077077075009015033077018000004076062001012047036000058052000027046015023058051023031042003000069077077077",
"077077077074058049075077077077077077077035010051077038002037077077044000000000000060074012000000000010058051023000002007045077077077077",
"077077077077077077077077077077077077077062049069077063048063077077077063050058075077077074052051058051068051023039047060077077077077077",
"077077077077077077077077077077077077077077077077077077077077077077077077077077077077077077077077077077077051010058077077077077077077077",
"077077077077077077077077077077077077077077077077077077077077077077077077077077077077077077077077077077077064051068077077077077077077077",
"077077077077077077077077077077077077077077077077077077077077077077077077077077077077077077077077077077077077077077077077077077077077077"
};
