/* XPM */
static const char *XZ_plane[] = {
/* columns rows colors chars-per-pixel */
"24 24 11 1",
"  c #000100",
". c #0E0705",
"X c #077C20",
"o c #3CB553",
"O c #0072FF",
"+ c #A4A7A3",
"@ c #ACA6A5",
"# c #A7A5A9",
"$ c #A0B7D6",
"% c #D4D0C8",
"& c #CBDBEE",
/* pixels */
"%%%%%%%%%%%%%%%%%%%%%%%%",
"%%%%%%%%%%%%%%%%%%%%%%%%",
"%%%%%%%%%%O&&&&&&&&&&&&&",
"%%%%%%%%%O$XXXXXXXXXXX$O",
"%%%%%%%%O$Xo$$$$$$$$XoO%",
"%%%%%%%O$X$o$$$$$$$X$O%%",
"%%%%%%O$X$$o$$$$$$X$O %%",
"%%%%%O$X$$$o$$$$$X$O% %%",
"%%%%O$X$$$$o$$$$X$O%% %%",
"%%%O$X$$$$$o$$$X$O%%% %%",
"%%O$XXXXXXXXXXX$O%%%% %%",
"%O$$X$$$$$$o$$XO%%%%% %%",
"OOOOOOOOOOOOOOO%%%%%% %%",
"%%%% %%%%%%++# @@@@@@ %%",
"%%%% %%%%%@%%% %%%%% %%%",
"%%%% %%%%@%%%% %%%% %%%%",
"%%%% %%%@%%%%%.%%% %%%%%",
"%%%% %%@%%%%%% %%.%%%%%%",
"%%%% %@%%%%%%%.% %%%%%%%",
"%%%% @%%%%%%%% .%%%%%%%%",
"%%%%           %%%%%%%%%",
"%%%%%%%%%%%%%%%%%%%%%%%%",
"%%%%%%%%%%%%%%%%%%%%%%%%",
"%%%%%%%%%%%%%%%%%%%%%%%%"
};
