/* XPM */
static const char *tbYLeft[] = {
"23 21 256 3",
"000 c #800000",
"001 c #800101",
"002 c #810000",
"003 c #810303",
"004 c #810404",
"005 c #820606",
"006 c #840606",
"007 c #860707",
"008 c #830909",
"009 c #840D0C",
"010 c #850D0C",
"011 c #880000",
"012 c #8C0000",
"013 c #86100F",
"014 c #871312",
"015 c #8B1111",
"016 c #891615",
"017 c #8D1615",
"018 c #891817",
"019 c #8A1A19",
"020 c #8B1C1B",
"021 c #8B1D1C",
"022 c #8F1E1D",
"023 c #900000",
"024 c #8D201F",
"025 c #8F2725",
"026 c #952827",
"027 c #912A28",
"028 c #922D2B",
"029 c #93302F",
"030 c #953432",
"031 c #963533",
"032 c #9A3634",
"033 c #993D3B",
"034 c #9E3E3C",
"035 c #9B4441",
"036 c #9D4441",
"037 c #9C4643",
"038 c #9C4745",
"039 c #9E4B48",
"040 c #9F4E4B",
"041 c #A04F4C",
"042 c #A0514E",
"043 c #A25451",
"044 c #A65E5A",
"045 c #A7615E",
"046 c #A86561",
"047 c #AC6662",
"048 c #AA6864",
"049 c #AC6E6A",
"050 c #AF7570",
"051 c #B07874",
"052 c #B27B77",
"053 c #B37F7A",
"054 c #B4807B",
"055 c #B4827D",
"056 c #B68580",
"057 c #B68983",
"058 c #B78983",
"059 c #B88C86",
"060 c #B98F8A",
"061 c #BC9690",
"062 c #BF9C96",
"063 c #C09F99",
"064 c #C1A39C",
"065 c #C4A9A3",
"066 c #C5ACA6",
"067 c #C7B0A9",
"068 c #C9B6AF",
"069 c #CBB9B2",
"070 c #CCBDB5",
"071 c #CDC0B9",
"072 c #CFC3BC",
"073 c #D0C7BF",
"074 c #D1CAC2",
"075 c #D3CDC5",
"076 c #D4D0C8",
"077 c black",
"078 c black",
"079 c black",
"080 c black",
"081 c black",
"082 c black",
"083 c black",
"084 c black",
"085 c black",
"086 c black",
"087 c black",
"088 c black",
"089 c black",
"090 c black",
"091 c black",
"092 c black",
"093 c black",
"094 c black",
"095 c black",
"096 c black",
"097 c black",
"098 c black",
"099 c black",
"100 c black",
"101 c black",
"102 c black",
"103 c black",
"104 c black",
"105 c black",
"106 c black",
"107 c black",
"108 c black",
"109 c black",
"110 c black",
"111 c black",
"112 c black",
"113 c black",
"114 c black",
"115 c black",
"116 c black",
"117 c black",
"118 c black",
"119 c black",
"120 c black",
"121 c black",
"122 c black",
"123 c black",
"124 c black",
"125 c black",
"126 c black",
"127 c black",
"128 c black",
"129 c black",
"130 c black",
"131 c black",
"132 c black",
"133 c black",
"134 c black",
"135 c black",
"136 c black",
"137 c black",
"138 c black",
"139 c black",
"140 c black",
"141 c black",
"142 c black",
"143 c black",
"144 c black",
"145 c black",
"146 c black",
"147 c black",
"148 c black",
"149 c black",
"150 c black",
"151 c black",
"152 c black",
"153 c black",
"154 c black",
"155 c black",
"156 c black",
"157 c black",
"158 c black",
"159 c black",
"160 c black",
"161 c black",
"162 c black",
"163 c black",
"164 c black",
"165 c black",
"166 c black",
"167 c black",
"168 c black",
"169 c black",
"170 c black",
"171 c black",
"172 c black",
"173 c black",
"174 c black",
"175 c black",
"176 c black",
"177 c black",
"178 c black",
"179 c black",
"180 c black",
"181 c black",
"182 c black",
"183 c black",
"184 c black",
"185 c black",
"186 c black",
"187 c black",
"188 c black",
"189 c black",
"190 c black",
"191 c black",
"192 c black",
"193 c black",
"194 c black",
"195 c black",
"196 c black",
"197 c black",
"198 c black",
"199 c black",
"200 c black",
"201 c black",
"202 c black",
"203 c black",
"204 c black",
"205 c black",
"206 c black",
"207 c black",
"208 c black",
"209 c black",
"210 c black",
"211 c black",
"212 c black",
"213 c black",
"214 c black",
"215 c black",
"216 c black",
"217 c black",
"218 c black",
"219 c black",
"220 c black",
"221 c black",
"222 c black",
"223 c black",
"224 c black",
"225 c black",
"226 c black",
"227 c black",
"228 c black",
"229 c black",
"230 c black",
"231 c black",
"232 c black",
"233 c black",
"234 c black",
"235 c black",
"236 c black",
"237 c black",
"238 c black",
"239 c black",
"240 c black",
"241 c black",
"242 c black",
"243 c black",
"244 c black",
"245 c black",
"246 c black",
"247 c black",
"248 c black",
"249 c black",
"250 c black",
"251 c black",
"252 c black",
"253 c black",
"254 c black",
"255 c black",
"076076076076076076076076069055048040048058071076076076076076076076076",
"076076076076076075055025000000000000000000000029060076076076076076076",
"076076076076065024000000000025040046039024000000000028057048048048062",
"076076076059005000021053072076076076076076070050009000003000000000048",
"076076059003000043074076076076076076076076076076045000000004041048062",
"076068008000048076076076076076076076076076076076048000029000016073076",
"076035000033076076075049048065076076076062048051048000055025000044076",
"071003000067076076076052000015072076068007002061048000055061000013075",
"056000028076076076076076036000034075026000047076062048065076014000064",
"046000045076076076076076073022000031000032076076076076076076038000055",
"040000052076076076076076076066006000017073076076076076076076045000048",
"048000045076076076076076076076044012053076076076076076076076038000055",
"058000028076060040063076076076048023055076076076076076076076014000064",
"071003000067048000055076076076048023055076076076076076076061000013075",
"076035000033048000055076076076048011055076076076076076076025000044076",
"076068008000030000055076076076062048065076076076076076040000016073076",
"062048037001000000054076076076076076076076076076073038000008063076076",
"048000000000000000020059072076076076076076070055019000010063076076076",
"062048048048043018000000000027042048040024000000000028068076076076076",
"076076076076076075055025000000000000000000000029060076076076076076076",
"076076076076076076076076068055048040048058070076076076076076076076076"
};
