/* XPM */
static const char *tbYRight[] = {
"23 21 256 3",
"000 c #800000",
"001 c #800101",
"002 c #810000",
"003 c #810303",
"004 c #810404",
"005 c #820606",
"006 c #840606",
"007 c #860707",
"008 c #830909",
"009 c #840D0C",
"010 c #850D0C",
"011 c #880000",
"012 c #8C0000",
"013 c #86100F",
"014 c #871312",
"015 c #8B1111",
"016 c #891615",
"017 c #8D1615",
"018 c #891817",
"019 c #8A1A19",
"020 c #8B1C1B",
"021 c #8B1D1C",
"022 c #8F1E1D",
"023 c #900000",
"024 c #8D201F",
"025 c #8F2725",
"026 c #952827",
"027 c #912A28",
"028 c #922D2B",
"029 c #93302F",
"030 c #953432",
"031 c #963533",
"032 c #9A3634",
"033 c #993D3B",
"034 c #9E3E3C",
"035 c #9B4441",
"036 c #9D4441",
"037 c #9C4643",
"038 c #9C4745",
"039 c #9E4B48",
"040 c #9F4E4B",
"041 c #A04F4C",
"042 c #A0514E",
"043 c #A25451",
"044 c #A65E5A",
"045 c #A7615E",
"046 c #A86561",
"047 c #AC6662",
"048 c #AA6864",
"049 c #AC6E6A",
"050 c #AF7570",
"051 c #B07874",
"052 c #B27B77",
"053 c #B37F7A",
"054 c #B3807B",
"055 c #B4807B",
"056 c #B4827D",
"057 c #B68580",
"058 c #B68983",
"059 c #B78983",
"060 c #B88C86",
"061 c #B98F8A",
"062 c #BC9690",
"063 c #BF9C96",
"064 c #C09F99",
"065 c #C1A39C",
"066 c #C4A9A3",
"067 c #C5ACA6",
"068 c #C7B0A9",
"069 c #C9B6AF",
"070 c #CBB9B2",
"071 c #CCBDB5",
"072 c #CDC0B9",
"073 c #CFC3BC",
"074 c #D0C7BF",
"075 c #D1CAC2",
"076 c #D3CDC5",
"077 c #D4D0C8",
"078 c black",
"079 c black",
"080 c black",
"081 c black",
"082 c black",
"083 c black",
"084 c black",
"085 c black",
"086 c black",
"087 c black",
"088 c black",
"089 c black",
"090 c black",
"091 c black",
"092 c black",
"093 c black",
"094 c black",
"095 c black",
"096 c black",
"097 c black",
"098 c black",
"099 c black",
"100 c black",
"101 c black",
"102 c black",
"103 c black",
"104 c black",
"105 c black",
"106 c black",
"107 c black",
"108 c black",
"109 c black",
"110 c black",
"111 c black",
"112 c black",
"113 c black",
"114 c black",
"115 c black",
"116 c black",
"117 c black",
"118 c black",
"119 c black",
"120 c black",
"121 c black",
"122 c black",
"123 c black",
"124 c black",
"125 c black",
"126 c black",
"127 c black",
"128 c black",
"129 c black",
"130 c black",
"131 c black",
"132 c black",
"133 c black",
"134 c black",
"135 c black",
"136 c black",
"137 c black",
"138 c black",
"139 c black",
"140 c black",
"141 c black",
"142 c black",
"143 c black",
"144 c black",
"145 c black",
"146 c black",
"147 c black",
"148 c black",
"149 c black",
"150 c black",
"151 c black",
"152 c black",
"153 c black",
"154 c black",
"155 c black",
"156 c black",
"157 c black",
"158 c black",
"159 c black",
"160 c black",
"161 c black",
"162 c black",
"163 c black",
"164 c black",
"165 c black",
"166 c black",
"167 c black",
"168 c black",
"169 c black",
"170 c black",
"171 c black",
"172 c black",
"173 c black",
"174 c black",
"175 c black",
"176 c black",
"177 c black",
"178 c black",
"179 c black",
"180 c black",
"181 c black",
"182 c black",
"183 c black",
"184 c black",
"185 c black",
"186 c black",
"187 c black",
"188 c black",
"189 c black",
"190 c black",
"191 c black",
"192 c black",
"193 c black",
"194 c black",
"195 c black",
"196 c black",
"197 c black",
"198 c black",
"199 c black",
"200 c black",
"201 c black",
"202 c black",
"203 c black",
"204 c black",
"205 c black",
"206 c black",
"207 c black",
"208 c black",
"209 c black",
"210 c black",
"211 c black",
"212 c black",
"213 c black",
"214 c black",
"215 c black",
"216 c black",
"217 c black",
"218 c black",
"219 c black",
"220 c black",
"221 c black",
"222 c black",
"223 c black",
"224 c black",
"225 c black",
"226 c black",
"227 c black",
"228 c black",
"229 c black",
"230 c black",
"231 c black",
"232 c black",
"233 c black",
"234 c black",
"235 c black",
"236 c black",
"237 c black",
"238 c black",
"239 c black",
"240 c black",
"241 c black",
"242 c black",
"243 c black",
"244 c black",
"245 c black",
"246 c black",
"247 c black",
"248 c black",
"249 c black",
"250 c black",
"251 c black",
"252 c black",
"253 c black",
"254 c black",
"255 c black",
"077077077077077077077077069056048040048059071077077077077077077077077",
"077077077077077076056025000000000000000000000029061077077077077077077",
"063048048048043018000000000027042048040024000000000028069077077077077",
"048000000000000000020060073077077077077077071056019000010064077077077",
"063048037001000000055077077077077077077077077077074038000008064077077",
"077069008000030000056077077077077077077077077077077077040000016074077",
"077035000033048000054049048066077077077063048051077077077025000044077",
"072003000068048000056052000015073077069007002062077077077062000013076",
"059000028077061040064077036000034076026000047077077077077077014000065",
"048000045077077077077077074022000031000032077077077077077077038000056",
"040000052077077077077077077067006000017074077077077077077077045000048",
"046000045077077077077077077077044012053077077077077077077077038000056",
"057000028077077077077077077077048023056077077077063048066077014000065",
"072003000068077077077077077077048023056077077077048000056062000013076",
"077035000033077077077077077077048011056077077077048000056025000044077",
"077069008000048077077077077077063048066077077077048000029000016074077",
"077077060003000043075077077077077077077077077077045000000004041048063",
"077077077060005000021053073077077077077077071050009000003000000000048",
"077077077077066024000000000025040046039024000000000028058048048048063",
"077077077077077076056025000000000000000000000029061077077077077077077",
"077077077077077077077077070056048040048059072077077077077077077077077"
};
