/* XPM */
static const char *tbZright[] = {
"23 21 256 3",
"000 c #800000",
"001 c #800101",
"002 c #810000",
"003 c #810101",
"004 c #810303",
"005 c #810404",
"006 c #820606",
"007 c #850403",
"008 c #830909",
"009 c #840D0C",
"010 c #850D0C",
"011 c #86100F",
"012 c #871312",
"013 c #891111",
"014 c #891615",
"015 c #891817",
"016 c #8A1A19",
"017 c #8B1C1B",
"018 c #8B1D1C",
"019 c #8D201F",
"020 c #8F2725",
"021 c #932726",
"022 c #972726",
"023 c #912A28",
"024 c #922D2B",
"025 c #93302F",
"026 c #953432",
"027 c #9C3936",
"028 c #993D3B",
"029 c #9B4441",
"030 c #9C4643",
"031 c #9C4745",
"032 c #9E4B48",
"033 c #9F4E4B",
"034 c #A34643",
"035 c #A14E4B",
"036 c #A04F4C",
"037 c #A0514E",
"038 c #A25451",
"039 c #A35854",
"040 c #A65E5A",
"041 c #AC5B57",
"042 c #A7615E",
"043 c #A86561",
"044 c #AA6864",
"045 c #AF7570",
"046 c #B16E6A",
"047 c #B07772",
"048 c #B27B77",
"049 c #B37F7A",
"050 c #B4807B",
"051 c #B4827D",
"052 c #B68580",
"053 c #B68983",
"054 c #B78983",
"055 c #B88C86",
"056 c #B98F8A",
"057 c #BC948E",
"058 c #BC9690",
"059 c #BF9C96",
"060 c #C09F99",
"061 c #C1A39C",
"062 c #C4A9A3",
"063 c #C7B0A9",
"064 c #C8B3AC",
"065 c #C9B6AF",
"066 c #CBB9B2",
"067 c #CCBDB5",
"068 c #CDC0B9",
"069 c #CFC3BC",
"070 c #D0C7BF",
"071 c #D1CAC2",
"072 c #D3CDC5",
"073 c #D4D0C8",
"074 c black",
"075 c black",
"076 c black",
"077 c black",
"078 c black",
"079 c black",
"080 c black",
"081 c black",
"082 c black",
"083 c black",
"084 c black",
"085 c black",
"086 c black",
"087 c black",
"088 c black",
"089 c black",
"090 c black",
"091 c black",
"092 c black",
"093 c black",
"094 c black",
"095 c black",
"096 c black",
"097 c black",
"098 c black",
"099 c black",
"100 c black",
"101 c black",
"102 c black",
"103 c black",
"104 c black",
"105 c black",
"106 c black",
"107 c black",
"108 c black",
"109 c black",
"110 c black",
"111 c black",
"112 c black",
"113 c black",
"114 c black",
"115 c black",
"116 c black",
"117 c black",
"118 c black",
"119 c black",
"120 c black",
"121 c black",
"122 c black",
"123 c black",
"124 c black",
"125 c black",
"126 c black",
"127 c black",
"128 c black",
"129 c black",
"130 c black",
"131 c black",
"132 c black",
"133 c black",
"134 c black",
"135 c black",
"136 c black",
"137 c black",
"138 c black",
"139 c black",
"140 c black",
"141 c black",
"142 c black",
"143 c black",
"144 c black",
"145 c black",
"146 c black",
"147 c black",
"148 c black",
"149 c black",
"150 c black",
"151 c black",
"152 c black",
"153 c black",
"154 c black",
"155 c black",
"156 c black",
"157 c black",
"158 c black",
"159 c black",
"160 c black",
"161 c black",
"162 c black",
"163 c black",
"164 c black",
"165 c black",
"166 c black",
"167 c black",
"168 c black",
"169 c black",
"170 c black",
"171 c black",
"172 c black",
"173 c black",
"174 c black",
"175 c black",
"176 c black",
"177 c black",
"178 c black",
"179 c black",
"180 c black",
"181 c black",
"182 c black",
"183 c black",
"184 c black",
"185 c black",
"186 c black",
"187 c black",
"188 c black",
"189 c black",
"190 c black",
"191 c black",
"192 c black",
"193 c black",
"194 c black",
"195 c black",
"196 c black",
"197 c black",
"198 c black",
"199 c black",
"200 c black",
"201 c black",
"202 c black",
"203 c black",
"204 c black",
"205 c black",
"206 c black",
"207 c black",
"208 c black",
"209 c black",
"210 c black",
"211 c black",
"212 c black",
"213 c black",
"214 c black",
"215 c black",
"216 c black",
"217 c black",
"218 c black",
"219 c black",
"220 c black",
"221 c black",
"222 c black",
"223 c black",
"224 c black",
"225 c black",
"226 c black",
"227 c black",
"228 c black",
"229 c black",
"230 c black",
"231 c black",
"232 c black",
"233 c black",
"234 c black",
"235 c black",
"236 c black",
"237 c black",
"238 c black",
"239 c black",
"240 c black",
"241 c black",
"242 c black",
"243 c black",
"244 c black",
"245 c black",
"246 c black",
"247 c black",
"248 c black",
"249 c black",
"250 c black",
"251 c black",
"252 c black",
"253 c black",
"254 c black",
"255 c black",
"073073073073073073073073065051044033044054067073073073073073073073073",
"073073073073073072051020000000000000000000000025056073073073073073073",
"059044044044038015000000000023037044033019000000000024065073073073073",
"044000000000000000017055069073073073073073067051016000010060073073073",
"059044030001000000050073073073073073073073073073070031000008060073073",
"073065008000026000051073059044044044044044044062073073033000014070073",
"073029000028044000051073044000000000000000000051073073073020000040073",
"068004000063044000051073059041041041027000007064073073073058000011072",
"054000024073056033060073073073073067013002057073073073073073012000061",
"044000042073073073073073073073072021000046073073073073073073031000051",
"033000048073073073073073073073035000034073073073073073073073042000044",
"043000042073073073073073073047000022072073073073073073073073031000051",
"052000024073073073073073059003000039044044044062059044062073012000061",
"068004000063073073073073044000000000000000000051044000051058000011072",
"073029000028073073073073059044044044044044044062044000051020000040073",
"073065008000044073073073073073073073073073073073044000025000014070073",
"073073055004000038071073073073073073073073073073042000000005036044059",
"073073073055006000018049069073073073073073067045009000004000000000044",
"073073073073062019000000000020033043032019000000000024053044044044059",
"073073073073073072051020000000000000000000000025056073073073073073073",
"073073073073073073073073066051044033044054068073073073073073073073073"
};
