/* XPM */
static const char *tbApply[] = {
"45 15 256 3",
"000 c #004000",
"001 c #034202",
"002 c #034203",
"003 c #074405",
"004 c #064406",
"005 c #074506",
"006 c #094609",
"007 c #0A4609",
"008 c #0A4709",
"009 c #0D480C",
"010 c #0D490C",
"011 c #0D490D",
"012 c #104B0F",
"013 c #104B10",
"014 c #134D12",
"015 c #134D13",
"016 c #144D12",
"017 c #144D13",
"018 c #174F15",
"019 c #174F16",
"020 c #175015",
"021 c #1A5219",
"022 c #1B5219",
"023 c #1E541C",
"024 c #20561F",
"025 c #245822",
"026 c #245922",
"027 c #255822",
"028 c #285B25",
"029 c #31612F",
"030 c #346431",
"031 c #356432",
"032 c #3B6838",
"033 c #3B6938",
"034 c #3E6A3B",
"035 c #3E6B3B",
"036 c #426C3E",
"037 c #426D3E",
"038 c #456F41",
"039 c #497144",
"040 c #4C7348",
"041 c #4F764B",
"042 c #50764B",
"043 c #53784E",
"044 c #567B51",
"045 c #5A7C55",
"046 c #5D7F57",
"047 c green",
"048 c #03FE03",
"049 c #06FD06",
"050 c #0DFC0C",
"051 c #13FA12",
"052 c #17F915",
"053 c #21F71F",
"054 c #2BF528",
"055 c #2EF42B",
"056 c #38F235",
"057 c #3BF138",
"058 c #60815A",
"059 c #60815B",
"060 c #63835E",
"061 c #678661",
"062 c #688762",
"063 c #6A8864",
"064 c #6D8A67",
"065 c #708C6A",
"066 c #718C6A",
"067 c #748F6D",
"068 c #7B9374",
"069 c #45EF41",
"070 c #49EE45",
"071 c #4FED4B",
"072 c #53EC4E",
"073 c #5DEA57",
"074 c #67E861",
"075 c #6AE764",
"076 c #74E56D",
"077 c #77E470",
"078 c #7EE277",
"079 c #81987A",
"080 c #859A7D",
"081 c #81E27A",
"082 c #85E17D",
"083 c #889C80",
"084 c #8B9E83",
"085 c #8FA186",
"086 c #92A38A",
"087 c #95A58D",
"088 c #9CAA93",
"089 c #9FAC96",
"090 c #A6B09C",
"091 c #ACB5A3",
"092 c #B0B7A6",
"093 c #B3B9A9",
"094 c #B6BCAC",
"095 c #BABEAF",
"096 c #8FDF86",
"097 c #92DE8A",
"098 c #9CDC93",
"099 c #A9D9A0",
"100 c #BDC0B2",
"101 c #B3D7A9",
"102 c #BAD5AF",
"103 c #BDD4B2",
"104 c #C0C3B5",
"105 c #C7C7BC",
"106 c #CAC9BF",
"107 c #C0D4B5",
"108 c #C7D2BC",
"109 c #CECCC2",
"110 c #CED1C2",
"111 c #D1CEC5",
"112 c #D1D0C5",
"113 c #D4D0C8",
"114 c black",
"115 c black",
"116 c black",
"117 c black",
"118 c black",
"119 c black",
"120 c black",
"121 c black",
"122 c black",
"123 c black",
"124 c black",
"125 c black",
"126 c black",
"127 c black",
"128 c black",
"129 c black",
"130 c black",
"131 c black",
"132 c black",
"133 c black",
"134 c black",
"135 c black",
"136 c black",
"137 c black",
"138 c black",
"139 c black",
"140 c black",
"141 c black",
"142 c black",
"143 c black",
"144 c black",
"145 c black",
"146 c black",
"147 c black",
"148 c black",
"149 c black",
"150 c black",
"151 c black",
"152 c black",
"153 c black",
"154 c black",
"155 c black",
"156 c black",
"157 c black",
"158 c black",
"159 c black",
"160 c black",
"161 c black",
"162 c black",
"163 c black",
"164 c black",
"165 c black",
"166 c black",
"167 c black",
"168 c black",
"169 c black",
"170 c black",
"171 c black",
"172 c black",
"173 c black",
"174 c black",
"175 c black",
"176 c black",
"177 c black",
"178 c black",
"179 c black",
"180 c black",
"181 c black",
"182 c black",
"183 c black",
"184 c black",
"185 c black",
"186 c black",
"187 c black",
"188 c black",
"189 c black",
"190 c black",
"191 c black",
"192 c black",
"193 c black",
"194 c black",
"195 c black",
"196 c black",
"197 c black",
"198 c black",
"199 c black",
"200 c black",
"201 c black",
"202 c black",
"203 c black",
"204 c black",
"205 c black",
"206 c black",
"207 c black",
"208 c black",
"209 c black",
"210 c black",
"211 c black",
"212 c black",
"213 c black",
"214 c black",
"215 c black",
"216 c black",
"217 c black",
"218 c black",
"219 c black",
"220 c black",
"221 c black",
"222 c black",
"223 c black",
"224 c black",
"225 c black",
"226 c black",
"227 c black",
"228 c black",
"229 c black",
"230 c black",
"231 c black",
"232 c black",
"233 c black",
"234 c black",
"235 c black",
"236 c black",
"237 c black",
"238 c black",
"239 c black",
"240 c black",
"241 c black",
"242 c black",
"243 c black",
"244 c black",
"245 c black",
"246 c black",
"247 c black",
"248 c black",
"249 c black",
"250 c black",
"251 c black",
"252 c black",
"253 c black",
"254 c black",
"255 c black",
"113113113113113113113113113113113113113113113113113113113113113113113113113113113113113113113113113113113113113113113113113113113113113",
"113113113113113113113113113113113113113113113113113113113113113113113113113113113113113113113113113113113113113113113113113113113113113",
"113113113113113113113113072108113113113113113113113113113113113113113113113113113113113113113113113089063113113113113113113113113113113",
"113113113113113113113113047113113113113113113113113000113113113113113113113113113113113113113113113063022113113113113113113113113113113",
"113113113113113113113112047113113113113113113113105000111113113113113113113113113113113113113113113063022113113113113113113113113113113",
"113113113113113113113056075113113113113113113113027046034113113011010000000028113011010000000028113063022113000084113066000113113113113",
"113113113113113113073047113113113113113113113041000113000063113022058113105009095022058113105009095063022113012002113000023113113113113",
"113113113113113113050047113113113113113113113003004113000018113022080113113038086022080113113038086063022113058000113000065113113113113",
"113113113113113113047077113113113113113113113008000000000000113022080113113033086022080113113033086063022113113032060035113113113113113",
"113113113113113071072113113113113113113113042064113113113043063022000043002000113022000043002000113063022113113111000111113113113113113",
"113113110070113049099113113113113113113113004100113113113090019022024000002059113022024000002059113063011113113113005113113113113113113",
"113113113047049047113113113113113113113113113113113113113113113022080113113113113022080113113113113113113113113079030113113113113113113",
"113113113112055074113113113113113113113113113113113113113113113063091113113113113063091113113113113113113113109063109113113113113113113",
"113113113113113113113113113113113113113113113113113113113113113113113113113113113113113113113113113113113113113113113113113113113113113",
"113113113113113113113113113113113113113113113113113113113113113113113113113113113113113113113113113113113113113113113113113113113113113"
};
