/* XPM */
static const char *copy_btn[] = {
/* columns rows colors chars-per-pixel */
"16 16 6 1",
"  c black",
". c #0143FF",
"X c #2D63FF",
"o c #5F89FF",
"O c #91B0FF",
"+ c gray100",
/* pixels */
"          O+++++",
" .++X++++ +O++++",
" +.++X+++ ++O+++",
" ++.++X++ o++O++",
" X++.++X+ +o++O+",
" +X++.++X ++o++O",
" ++X++          ",
" +++X+ ++++++++ ",
" ++++X ++++++++ ",
"       ++++++++ ",
"O++o++ ++++++++ ",
"+O++o+ ++++++++ ",
"++O++o ++++++++ ",
"+++O++ ++++++++ ",
"++++O+ ++++++++ ",
"+++++O          "
};
