/* XPM */
static const char *delete_btn[] = {
/* columns rows colors chars-per-pixel */
"16 16 39 1",
"  c black",
". c #3A0E0E",
"X c #451111",
"o c #4A1212",
"O c #5B1515",
"+ c #611717",
"@ c #681818",
"# c #6D1919",
"$ c #7D1D1D",
"% c #8D2121",
"& c #982424",
"* c #9D2525",
"= c #AE2828",
"- c #B42A2A",
"; c #D03030",
": c #D33B3B",
"> c #D74B4B",
", c #D95757",
"< c #DD6767",
"1 c #DF7373",
"2 c #808080",
"3 c #E68E8E",
"4 c #ECAAAA",
"5 c #C0C0C0",
"6 c #F2C6C6",
"7 c #F4CACA",
"8 c #F5CFCF",
"9 c #F6D4D4",
"0 c #F7D9D9",
"q c #F8DEDE",
"w c #F9E1E1",
"e c #F9E3E3",
"r c #FAE8E8",
"t c #FBEBEB",
"y c #FCF0F0",
"u c #FDF5F5",
"i c #FEFAFA",
"p c #FFFDFD",
"a c gray100",
/* pixels */
"aaaaaaaaaaaaaaaa",
"a5aaaaaaaaaaaa5a",
"aa2aaaaaaaaaa2aa",
"aaa@.oO#$%*=@aaa",
"aaaX 67890q :aaa",
"aaa+7 90qe r,aaa",
"aaa$90 er yu1aaa",
"aaa&qer  uia3aaa",
"aaa-rtt  aaa4aaa",
"aaa;yu aa aa6aaa",
"aaa>i aaaa aeaaa",
"aaa< aaaaaa aaaa",
"aaa@aaaaaaaa@aaa",
"aa2aaaaaaaaaa2aa",
"a5aaaaaaaaaaaa5a",
"aaaaaaaaaaaaaaaa"
};
