/* XPM */
static const char *tbDocking[] = {
"45 15 256 3",
"000 c black",
"001 c #030202",
"002 c gray1",
"003 c #060606",
"004 c #090909",
"005 c #0A0909",
"006 c #0D0C0C",
"007 c #0D0D0C",
"008 c gray5",
"009 c #10100F",
"010 c #131312",
"011 c #131313",
"012 c #141312",
"013 c #141313",
"014 c #171615",
"015 c #171715",
"016 c #171616",
"017 c #1A1A18",
"018 c #1A1A19",
"019 c #1B1A19",
"020 c #20201F",
"021 c #21201F",
"022 c #242322",
"023 c #242422",
"024 c #272725",
"025 c #272726",
"026 c #282725",
"027 c #2B2A28",
"028 c #2E2D2B",
"029 c #2E2D2C",
"030 c #31312E",
"031 c #343431",
"032 c #383735",
"033 c #3E3D3B",
"034 c #42413E",
"035 c #454441",
"036 c #484744",
"037 c #494744",
"038 c #494844",
"039 c #53514E",
"040 c #565451",
"041 c #595854",
"042 c #5D5B57",
"043 c #605E5A",
"044 c #63615E",
"045 c #63625D",
"046 c #63625E",
"047 c #676561",
"048 c #6A6864",
"049 c #6D6B67",
"050 c #706E6A",
"051 c #74726D",
"052 c #7B7874",
"053 c #7E7B77",
"054 c #817F7A",
"055 c #85827D",
"056 c #888580",
"057 c #8B8983",
"058 c #8F8C86",
"059 c #8F8C87",
"060 c #928F8A",
"061 c #989690",
"062 c #9C9993",
"063 c #9F9C96",
"064 c #A29F99",
"065 c #A6A39C",
"066 c #A9A6A0",
"067 c #ACA9A3",
"068 c #B0ACA6",
"069 c #B3B0A9",
"070 c #B6B3AC",
"071 c #C0BDB5",
"072 c #C4C0B9",
"073 c #C7C3BC",
"074 c #CECAC2",
"075 c #D1CDC5",
"076 c #D4D0C8",
"077 c black",
"078 c black",
"079 c black",
"080 c black",
"081 c black",
"082 c black",
"083 c black",
"084 c black",
"085 c black",
"086 c black",
"087 c black",
"088 c black",
"089 c black",
"090 c black",
"091 c black",
"092 c black",
"093 c black",
"094 c black",
"095 c black",
"096 c black",
"097 c black",
"098 c black",
"099 c black",
"100 c black",
"101 c black",
"102 c black",
"103 c black",
"104 c black",
"105 c black",
"106 c black",
"107 c black",
"108 c black",
"109 c black",
"110 c black",
"111 c black",
"112 c black",
"113 c black",
"114 c black",
"115 c black",
"116 c black",
"117 c black",
"118 c black",
"119 c black",
"120 c black",
"121 c black",
"122 c black",
"123 c black",
"124 c black",
"125 c black",
"126 c black",
"127 c black",
"128 c black",
"129 c black",
"130 c black",
"131 c black",
"132 c black",
"133 c black",
"134 c black",
"135 c black",
"136 c black",
"137 c black",
"138 c black",
"139 c black",
"140 c black",
"141 c black",
"142 c black",
"143 c black",
"144 c black",
"145 c black",
"146 c black",
"147 c black",
"148 c black",
"149 c black",
"150 c black",
"151 c black",
"152 c black",
"153 c black",
"154 c black",
"155 c black",
"156 c black",
"157 c black",
"158 c black",
"159 c black",
"160 c black",
"161 c black",
"162 c black",
"163 c black",
"164 c black",
"165 c black",
"166 c black",
"167 c black",
"168 c black",
"169 c black",
"170 c black",
"171 c black",
"172 c black",
"173 c black",
"174 c black",
"175 c black",
"176 c black",
"177 c black",
"178 c black",
"179 c black",
"180 c black",
"181 c black",
"182 c black",
"183 c black",
"184 c black",
"185 c black",
"186 c black",
"187 c black",
"188 c black",
"189 c black",
"190 c black",
"191 c black",
"192 c black",
"193 c black",
"194 c black",
"195 c black",
"196 c black",
"197 c black",
"198 c black",
"199 c black",
"200 c black",
"201 c black",
"202 c black",
"203 c black",
"204 c black",
"205 c black",
"206 c black",
"207 c black",
"208 c black",
"209 c black",
"210 c black",
"211 c black",
"212 c black",
"213 c black",
"214 c black",
"215 c black",
"216 c black",
"217 c black",
"218 c black",
"219 c black",
"220 c black",
"221 c black",
"222 c black",
"223 c black",
"224 c black",
"225 c black",
"226 c black",
"227 c black",
"228 c black",
"229 c black",
"230 c black",
"231 c black",
"232 c black",
"233 c black",
"234 c black",
"235 c black",
"236 c black",
"237 c black",
"238 c black",
"239 c black",
"240 c black",
"241 c black",
"242 c black",
"243 c black",
"244 c black",
"245 c black",
"246 c black",
"247 c black",
"248 c black",
"249 c black",
"250 c black",
"251 c black",
"252 c black",
"253 c black",
"254 c black",
"255 c black",
"076076076076076076076076076076076076076076076076076076076076076076076076076076076076076076076076076076076076076076076076076076076076076",
"076076076076076076076076076076076076076076076076076076076076076076076076076076076076076076076076076076076076076076076076076076076076076",
"076076076076076076076076076063048048048055068076076076076076071053042055073076076076076076062049042055074076063048067076076069048051075",
"076076076076076076076076076048008000000000000038075076076061006000000000016067076076070028000000000000010073048008055076069011002064076",
"076076076076076076076076076048019034046033007003036076074013000029043022000031076074026002017041041023000056048019055065011001059076076",
"076076076014000000022070076048019055076076066007000071060000030075076074017001068058005018073076076076060061048019039004001059076076076",
"076076053000000000000000076048019055076076076037000057043000049076076076039002054043000049076076076076076076048019000000050076076076076",
"076076041000000000000000076048019055076076076037000055047000049076076076039000053044000050076076076076076076048019000000032075076076076",
"076076055000000000000000076048019055076076069007000072060000030075076074017001068058001017072076076075056067048019042018000041076076076",
"076076076018000000024070076048019034045035005000043076074013001027041021002031076074020004015040040018005055048019055069012000054076076",
"076076076073055043074076076048008000000000000038075076076061009000000000018067076076067025000000000003009063048008055076068004002063076",
"076076076076076076076076076063048048049055068076076076076076071054042055073076076076076076062048043057074076063048067076076065048052076",
"076076076076076076076076076076076076076076076076076076076076076076076076076076076076076076076076076076076076076076076076076076076076076",
"076076076076076076076076076076076076076076076076076076076076076076076076076076076076076076076076076076076076076076076076076076076076076",
"076076076076076076076076076076076076076076076076076076076076076076076076076076076076076076076076076076076076076076076076076076076076076"
};
