/* XPM */
static const char *dragable_unselected[] = {
/* columns rows colors chars-per-pixel */
"16 16 49 1",
"  c black",
". c #000100",
"X c #010101",
"o c #000300",
"O c #020302",
"+ c #000700",
"@ c #040504",
"# c #050705",
"$ c #070907",
"% c #090B09",
"& c #0A0C0A",
"* c #0B0C0B",
"= c #001600",
"- c #001900",
"; c #170517",
": c #1B051B",
"> c #171917",
", c #002000",
"< c #003B00",
"1 c #230723",
"2 c #2B082C",
"3 c #272927",
"4 c #3C3E3C",
"5 c #450D47",
"6 c #4F0F51",
"7 c #5E1161",
"8 c #69146C",
"9 c gray38",
"0 c #696A69",
"q c #797979",
"w c #7B7B7B",
"e c green",
"r c #AA00B0",
"t c magenta",
"y c gray56",
"u c gray59",
"i c gray62",
"p c #ACACAC",
"a c gray70",
"s c #C1C1C1",
"d c gray78",
"f c gray82",
"g c LightGray",
"h c gray83",
"j c #E7E7E7",
"k c #F1F1F1",
"l c gray95",
"z c gray99",
"x c #FEFEFE",
/* pixels */
"eeeeeeeeeeeeeeee",
"eeeeejfsdgkeeeee",
"eeely3%#$&4pzeee",
"eel0O +,,+ *uzee",
"exqOX16tt6: *pee",
"eh>.2rt88tr; 4ke",
"ew =7t8888t5o@ae",
"e9 <t888888t- ie",
"e9 <t888888t- ie",
"ew =7t8888t5o@ae",
"eh>.2rt88tr; 4ke",
"exqOX16tt6: *pee",
"eel0O +,,+ *uzee",
"eeely3%#$&4pzeee",
"eeeeejfsdgkeeeee",
"eeeeeeeeeeeeeeee"
};
