/* XPM */
static const char *dragable_selected[] = {
/* columns rows colors chars-per-pixel */
"16 16 51 1",
"  c black",
". c #000100",
"X c #000300",
"o c #020302",
"O c #000700",
"+ c #040504",
"@ c #050705",
"# c #070907",
"$ c #090B09",
"% c #0A0C0A",
"& c #0B0C0B",
"* c #001600",
"= c #001900",
"- c #171917",
"; c #181818",
": c #002000",
"> c #003B00",
", c #310032",
"< c #272927",
"1 c #3C3E3C",
"2 c #4B004C",
"3 c #4F0050",
"4 c #59005A",
"5 c #600064",
"6 c gray38",
"7 c #696A69",
"8 c #797979",
"9 c #7B7B7B",
"0 c green",
"q c #7F0084",
"w c #8B0090",
"e c #9A00A0",
"r c #9C00A2",
"t c #A400AA",
"y c #AA00B0",
"u c magenta",
"i c gray56",
"p c gray59",
"a c gray62",
"s c #ACACAC",
"d c gray70",
"f c #C1C1C1",
"g c gray78",
"h c gray82",
"j c LightGray",
"k c gray83",
"l c #E7E7E7",
"z c #F1F1F1",
"x c gray95",
"c c gray99",
"v c #FEFEFE",
/* pixels */
"0000000000000000",
"00000lhfgjz00000",
"000xi<$@#%1sc000",
"00x7o O::O &pc00",
"0v8o,4wuuw3;&s00",
"0k-.5tuyyue2 1z0",
"09 *ruyyyyuqX+d0",
"06 >uyyyyyyu= a0",
"06 >uyyyyyyu= a0",
"09 *ruyyyyuqX+d0",
"0k-.5tuyyue2 1z0",
"0v8o,4wuuw3;&s00",
"00x7o O::O &pc00",
"000xi<$@#%1sc000",
"00000lhfgjz00000",
"0000000000000000"
};
