/* XPM */
static const char *dragable_selected_open[] = {
/* columns rows colors chars-per-pixel */
"16 16 31 1",
"  c black",
". c #000100",
"X c #020302",
"o c #000700",
"O c #050705",
"+ c #090B09",
"@ c #001600",
"# c #171917",
"$ c #002000",
"% c #003B00",
"& c #310032",
"* c #272927",
"= c #59005A",
"- c #600064",
"; c gray38",
": c #696A69",
"> c #797979",
", c #7B7B7B",
"< c green",
"1 c #8B0090",
"2 c #9C00A2",
"3 c #A400AA",
"4 c #AA00B0",
"5 c magenta",
"6 c gray56",
"7 c #C1C1C1",
"8 c gray82",
"9 c gray83",
"0 c #E7E7E7",
"q c gray95",
"w c #FEFEFE",
/* pixels */
"4445% ;<<; %5444",
"4452@ ,<<, @2544",
"453-.#9<<9#.-354",
"51=&X>w<<w>X&=15",
"$o X:q<<<<q:X o$",
"O+*6q<<<<<<q6*+O",
"780<<<<<<<<<<087",
"<<<<<<<<<<<<<<<<",
"<<<<<<<<<<<<<<<<",
"780<<<<<<<<<<087",
"O+*6q<<<<<<q6*+O",
"$o X:q<<<<q:X o$",
"51=&X>w<<w>X&=15",
"453-.#9<<9#.-354",
"4452@ ,<<, @2544",
"4445% ;<<; %5444"
};
