/* XPM */
static const char *tbHeader[] = {
"45 15 256 3",
"000 c black",
"001 c #030202",
"002 c gray1",
"003 c #070605",
"004 c #060606",
"005 c #070706",
"006 c #090909",
"007 c #0A0909",
"008 c #0D0D0C",
"009 c gray5",
"010 c #10100F",
"011 c #131312",
"012 c #141412",
"013 c #171615",
"014 c #1A1A19",
"015 c #1B1A19",
"016 c #1D1D1C",
"017 c #20201F",
"018 c #242322",
"019 c #242422",
"020 c #272725",
"021 c #282725",
"022 c #2B2A28",
"023 c #2E2D2B",
"024 c #31302F",
"025 c #353332",
"026 c #343432",
"027 c #353432",
"028 c #383735",
"029 c #3B3A38",
"030 c #3E3D3B",
"031 c #42413E",
"032 c #454442",
"033 c #494744",
"034 c #4F4E4B",
"035 c #504E4B",
"036 c #565451",
"037 c #565551",
"038 c #595854",
"039 c #5D5B57",
"040 c #605E5A",
"041 c #63615E",
"042 c #676561",
"043 c #6A6864",
"044 c #706E6A",
"045 c #716E6A",
"046 c #74726D",
"047 c #777570",
"048 c #7B7874",
"049 c #7E7B77",
"050 c #817F7A",
"051 c #84827D",
"052 c #85827D",
"053 c #888580",
"054 c #8B8983",
"055 c #8F8C86",
"056 c #928F8A",
"057 c #95928D",
"058 c #989690",
"059 c #9C9993",
"060 c #9F9C96",
"061 c #A29F99",
"062 c #A9A6A0",
"063 c #ACA9A3",
"064 c #B3B0A9",
"065 c #B6B3AC",
"066 c #BAB6AF",
"067 c #C0BDB5",
"068 c #C7C3BC",
"069 c #CAC7BF",
"070 c #CECAC2",
"071 c #D1CDC5",
"072 c #D4D0C8",
"073 c black",
"074 c black",
"075 c black",
"076 c black",
"077 c black",
"078 c black",
"079 c black",
"080 c black",
"081 c black",
"082 c black",
"083 c black",
"084 c black",
"085 c black",
"086 c black",
"087 c black",
"088 c black",
"089 c black",
"090 c black",
"091 c black",
"092 c black",
"093 c black",
"094 c black",
"095 c black",
"096 c black",
"097 c black",
"098 c black",
"099 c black",
"100 c black",
"101 c black",
"102 c black",
"103 c black",
"104 c black",
"105 c black",
"106 c black",
"107 c black",
"108 c black",
"109 c black",
"110 c black",
"111 c black",
"112 c black",
"113 c black",
"114 c black",
"115 c black",
"116 c black",
"117 c black",
"118 c black",
"119 c black",
"120 c black",
"121 c black",
"122 c black",
"123 c black",
"124 c black",
"125 c black",
"126 c black",
"127 c black",
"128 c black",
"129 c black",
"130 c black",
"131 c black",
"132 c black",
"133 c black",
"134 c black",
"135 c black",
"136 c black",
"137 c black",
"138 c black",
"139 c black",
"140 c black",
"141 c black",
"142 c black",
"143 c black",
"144 c black",
"145 c black",
"146 c black",
"147 c black",
"148 c black",
"149 c black",
"150 c black",
"151 c black",
"152 c black",
"153 c black",
"154 c black",
"155 c black",
"156 c black",
"157 c black",
"158 c black",
"159 c black",
"160 c black",
"161 c black",
"162 c black",
"163 c black",
"164 c black",
"165 c black",
"166 c black",
"167 c black",
"168 c black",
"169 c black",
"170 c black",
"171 c black",
"172 c black",
"173 c black",
"174 c black",
"175 c black",
"176 c black",
"177 c black",
"178 c black",
"179 c black",
"180 c black",
"181 c black",
"182 c black",
"183 c black",
"184 c black",
"185 c black",
"186 c black",
"187 c black",
"188 c black",
"189 c black",
"190 c black",
"191 c black",
"192 c black",
"193 c black",
"194 c black",
"195 c black",
"196 c black",
"197 c black",
"198 c black",
"199 c black",
"200 c black",
"201 c black",
"202 c black",
"203 c black",
"204 c black",
"205 c black",
"206 c black",
"207 c black",
"208 c black",
"209 c black",
"210 c black",
"211 c black",
"212 c black",
"213 c black",
"214 c black",
"215 c black",
"216 c black",
"217 c black",
"218 c black",
"219 c black",
"220 c black",
"221 c black",
"222 c black",
"223 c black",
"224 c black",
"225 c black",
"226 c black",
"227 c black",
"228 c black",
"229 c black",
"230 c black",
"231 c black",
"232 c black",
"233 c black",
"234 c black",
"235 c black",
"236 c black",
"237 c black",
"238 c black",
"239 c black",
"240 c black",
"241 c black",
"242 c black",
"243 c black",
"244 c black",
"245 c black",
"246 c black",
"247 c black",
"248 c black",
"249 c black",
"250 c black",
"251 c black",
"252 c black",
"253 c black",
"254 c black",
"255 c black",
"072072072072072072072072072072072072072072072072072072072072072072072072072072072072072072072072072072072072072072072072072072072072072",
"072072072072072072072072072072072072072072072072072072072072072072072072072072072072072072072072072072072072072072072072072072072072072",
"072072072072072072072072072072072072072072072072072072072072072072072072072072072072072072072072072072072072072072072072072072072072072",
"072072072072072072072072072072072072072072072072072072072072072072072072072072072072072072060043072072072072072072072072072072072072072",
"072072072072072072072072072072072072060043072072060063072072072072072072072072072072072072043009072072072072072072072072072072072072072",
"072072072013000000018065072072072072043015072072043052072065040072072065039040072072072045029015072065045059072060060040063072072072072",
"072072049000000000000000072072072072043015043043027052004008030004067060043038011067006036016015066008035001067043004043063072072072072",
"072072038000000000000000072072072072043015000000000052000023043004057072056050016049000072043015046023043012057043048072072072072072072",
"072072052000000000000000072072072072043015072072043052000021043020052004028034015045000072042015049021043043052043052072072072072072072",
"072072072014000000020065072072072072043009072072043052051004000002055011000000009072037000000009072004000000055043052072072072072072072",
"072072072068052040070072072072072072060043072072060063072066039071072069038048043072072042058043072066046061072060063072072072072072072",
"072072072072072072072072072072072072072072072072072072072072072072072072072072072072072072072072072072072072072072072072072072072072072",
"072072072072072072072072072072072072072072072072072072072072072072072072072072072072072072072072072072072072072072072072072072072072072",
"072072072072072072072072072072072072072072072072072072072072072072072072072072072072072072072072072072072072072072072072072072072072072",
"072072072072072072072072072072072072072072072072072072072072072072072072072072072072072072072072072072072072072072072072072072072072072"
};
