/* XPM */
static const char *tbPath[] = {
"45 15 256 3",
"000 c black",
"001 c #030202",
"002 c gray1",
"003 c #060606",
"004 c #0A0909",
"005 c #0D0C0C",
"006 c #0D0D0C",
"007 c gray5",
"008 c #100F0F",
"009 c #10100F",
"010 c #131312",
"011 c #141312",
"012 c #141313",
"013 c #171615",
"014 c #171715",
"015 c #171716",
"016 c #1A1919",
"017 c #1A1A18",
"018 c #1A1A19",
"019 c #1B1A19",
"020 c #1D1D1C",
"021 c #242322",
"022 c #242422",
"023 c #272725",
"024 c #2B2A29",
"025 c #2E2D2C",
"026 c #31302F",
"027 c #353332",
"028 c #353432",
"029 c #3B3A38",
"030 c #3E3D3B",
"031 c #42413E",
"032 c #454441",
"033 c #454442",
"034 c #494744",
"035 c #494844",
"036 c #4F4E4B",
"037 c #53514E",
"038 c #565451",
"039 c #565551",
"040 c #595854",
"041 c #5D5B57",
"042 c #605E5A",
"043 c #62605C",
"044 c #63615E",
"045 c #676561",
"046 c #6A6864",
"047 c #6C6A65",
"048 c #6D6B67",
"049 c #716E6A",
"050 c #74726D",
"051 c #777570",
"052 c #7B7874",
"053 c #7E7B77",
"054 c #817F7A",
"055 c #85827D",
"056 c #888580",
"057 c #8A8782",
"058 c #928F8A",
"059 c #989690",
"060 c #9C9993",
"061 c #9F9C96",
"062 c #A29F99",
"063 c #A6A39C",
"064 c #A9A6A0",
"065 c #ACA9A3",
"066 c #B3B0A9",
"067 c #B6B3AC",
"068 c #C0BDB5",
"069 c #C4C0B9",
"070 c #C7C3BC",
"071 c #CAC7BF",
"072 c #CECAC2",
"073 c #D1CDC5",
"074 c #D4D0C8",
"075 c black",
"076 c black",
"077 c black",
"078 c black",
"079 c black",
"080 c black",
"081 c black",
"082 c black",
"083 c black",
"084 c black",
"085 c black",
"086 c black",
"087 c black",
"088 c black",
"089 c black",
"090 c black",
"091 c black",
"092 c black",
"093 c black",
"094 c black",
"095 c black",
"096 c black",
"097 c black",
"098 c black",
"099 c black",
"100 c black",
"101 c black",
"102 c black",
"103 c black",
"104 c black",
"105 c black",
"106 c black",
"107 c black",
"108 c black",
"109 c black",
"110 c black",
"111 c black",
"112 c black",
"113 c black",
"114 c black",
"115 c black",
"116 c black",
"117 c black",
"118 c black",
"119 c black",
"120 c black",
"121 c black",
"122 c black",
"123 c black",
"124 c black",
"125 c black",
"126 c black",
"127 c black",
"128 c black",
"129 c black",
"130 c black",
"131 c black",
"132 c black",
"133 c black",
"134 c black",
"135 c black",
"136 c black",
"137 c black",
"138 c black",
"139 c black",
"140 c black",
"141 c black",
"142 c black",
"143 c black",
"144 c black",
"145 c black",
"146 c black",
"147 c black",
"148 c black",
"149 c black",
"150 c black",
"151 c black",
"152 c black",
"153 c black",
"154 c black",
"155 c black",
"156 c black",
"157 c black",
"158 c black",
"159 c black",
"160 c black",
"161 c black",
"162 c black",
"163 c black",
"164 c black",
"165 c black",
"166 c black",
"167 c black",
"168 c black",
"169 c black",
"170 c black",
"171 c black",
"172 c black",
"173 c black",
"174 c black",
"175 c black",
"176 c black",
"177 c black",
"178 c black",
"179 c black",
"180 c black",
"181 c black",
"182 c black",
"183 c black",
"184 c black",
"185 c black",
"186 c black",
"187 c black",
"188 c black",
"189 c black",
"190 c black",
"191 c black",
"192 c black",
"193 c black",
"194 c black",
"195 c black",
"196 c black",
"197 c black",
"198 c black",
"199 c black",
"200 c black",
"201 c black",
"202 c black",
"203 c black",
"204 c black",
"205 c black",
"206 c black",
"207 c black",
"208 c black",
"209 c black",
"210 c black",
"211 c black",
"212 c black",
"213 c black",
"214 c black",
"215 c black",
"216 c black",
"217 c black",
"218 c black",
"219 c black",
"220 c black",
"221 c black",
"222 c black",
"223 c black",
"224 c black",
"225 c black",
"226 c black",
"227 c black",
"228 c black",
"229 c black",
"230 c black",
"231 c black",
"232 c black",
"233 c black",
"234 c black",
"235 c black",
"236 c black",
"237 c black",
"238 c black",
"239 c black",
"240 c black",
"241 c black",
"242 c black",
"243 c black",
"244 c black",
"245 c black",
"246 c black",
"247 c black",
"248 c black",
"249 c black",
"250 c black",
"251 c black",
"252 c black",
"253 c black",
"254 c black",
"255 c black",
"074074074074074074074074074074074074074074074074074074074074074074074074074074074074074074074074074074074074074074074074074074074074074",
"074074074074074074074074074074074074074074074074074074074074074074074074074074074074074074074074074074074074074074074074074074074074074",
"074074074074074074074074074074074074074074074074074074074074074074074074074074074074074061046065074074074074074074074074074074074074074",
"074074074074074074074074074074074061046046050060073074074074074074074074074061046065074046007055074074074074074074074074074074074074074",
"074074074074074074074074074074074046007000000000031074074074074074074074074046007055074046019055074074074074074074074074074074074074074",
"074074074013000000021067074074074046019031038006004061074067050037048068061028019031046038019042045046069074074068049044065074074074074",
"074074053000000000000000074074074046019055074037000051074046000000000017043000019000000031019000000006020074066005000000000058074074074",
"074074040000000000000000074074074046019031036004003063074060029015000003047027019031046038019005041014003065041000016034003055074074074",
"074074055000000000000000074074074046019000000000039074069026000000000019055046019055074046019054074041015055052000000005030065074074074",
"074074074018000000023067074074074046019031050060074074051001008032024019055046019054074046019055074046019055059033011000001064074074074",
"074074074070055042072074074074074046019055074074074074048000022039012019055056000025046038019055074046019055046002035009000054074074074",
"074074074074074074074074074074074046007055074074074074070009000000000007055071012000000031007055074046007055051000000000010072074074074",
"074074074074074074074074074074074061046065074074074074074070048046055046065074067044049057046065074061046065074062042054069074074074074",
"074074074074074074074074074074074074074074074074074074074074074074074074074074074074074074074074074074074074074074074074074074074074074",
"074074074074074074074074074074074074074074074074074074074074074074074074074074074074074074074074074074074074074074074074074074074074074"
};
