/* XPM */
static const char *proj_persp[] = {
/* columns rows colors chars-per-pixel */
"24 24 15 1",
"  c #000100",
". c #070905",
"X c #575558",
"o c #60625F",
"O c #626461",
"+ c #6E6B6F",
"@ c #1700FF",
"# c #828084",
"$ c #878986",
"% c #A7A5A9",
"& c #AAACA9",
"* c #B7B9B6",
"= c #BAB7BC",
"- c #D4D0C8",
"; c #EEF3F6",
/* pixels */
"------------------------",
"---------OOOOOOO--------",
"-------&+------O--------",
"-----.%-&-----o+--------",
"--& %---%---- -o--------",
"-   .   .    --+--------",
"- ------%--- --X--------",
"- ------&--- --O--------",
"- ------&--- --O--------",
"- ------%&&& &o+--------",
"- -----&---- -o-----  --",
"- ----&----- ==----  ---",
"- ---%------ =#---   ---",
"- --%------- $---  ;  --",
"- -&-------- *--  ;@@ --",
"- &--------- =-  ;;@@ --",
"-            --  ;;@@ --",
"----------------  ;;  --",
"-----------------    ---",
"-------------------   --",
"------------------------",
"------------------------",
"------------------------",
"------------------------"
};
