/* XPM */
static const char *proj_ortho[] = {
/* columns rows colors chars-per-pixel */
"24 24 8 1",
"  c #000100",
". c #070905",
"X c #1700FF",
"o c #A7A5A9",
"O c #AAACA9",
"+ c #B4B0B7",
"@ c #D4D0C8",
"# c #EEF3F6",
/* pixels */
"@@@@@@@@           @@@@@",
"@@@@@@@ O@@@@@@@@O @@@@@",
"@@@@@@ @o@@@@@@@O@ @@@@@",
"@@@@@ @@O@@@@@@o@@ @@@@@",
"@@@@ @@@+@@@@@O@@@ @@@@@",
"@@@ @@@@O@@@@+@@@@ @@@@@",
"@@ @@@@@o@@@O@@@@@ @@@@@",
"@      .    @@@@@@ @@@@@",
"@ @@@@@@O@@ @@@@@@ @@@@@",
"@ @@@@@@O@@ @@@@@@ @@@@@",
"@ @@@@@@oOO oOOOOO @  @@",
"@ @@@@@O@@@.@@@@@ @  @@@",
"@ @@@@O@@@@ @@@@ @   @@@",
"@ @@@+@@@@@ @@@ @  #  @@",
"@ @@o@@@@@@ @@ @  #XX @@",
"@ @O@@@@@@@ @ @  ##XX @@",
"@.o@@@@@@@@  @@  ##XX @@",
"@           @@@@  ##  @@",
"@@@@@@@@@@@@@@@@@    @@@",
"@@@@@@@@@@@@@@@@@@@   @@",
"@@@@@@@@@@@@@@@@@@@@@@@@",
"@@@@@@@@@@@@@@@@@@@@@@@@",
"@@@@@@@@@@@@@@@@@@@@@@@@",
"@@@@@@@@@@@@@@@@@@@@@@@@"
};
