/* XPM */
static const char *selected_open[] = {
/* columns rows colors chars-per-pixel */
"16 16 76 1",
"  c #1A1615",
". c #15191A",
"X c #191B18",
"o c #231F1E",
"O c #1F211E",
"+ c #1F3017",
"@ c #1E3C18",
"# c #262221",
"$ c #222421",
"% c #2A2625",
"& c #282927",
"* c #24282A",
"= c #2C2E2B",
"- c #273D26",
"; c #363735",
": c #18560F",
"> c #1A5318",
", c #25521B",
"< c #254324",
"1 c #314A2D",
"2 c #344632",
"3 c #394D37",
"4 c #1C7220",
"5 c #277129",
"6 c #484947",
"7 c #4B4D4B",
"8 c #514C4B",
"9 c #494E50",
"0 c #515350",
"q c #545653",
"w c #595453",
"e c #50565C",
"r c #5B5D5A",
"t c #605C5A",
"y c #645F5E",
"u c #5F615F",
"i c #5F6466",
"p c #6B6665",
"a c #696B68",
"s c #747673",
"d c #73777A",
"f c #757A7C",
"g c #797B78",
"h c #837E7D",
"j c #078103",
"k c #0F8C04",
"l c #009905",
"z c #00A303",
"x c #05B107",
"c c #24BC07",
"v c #00CF13",
"b c #00EE04",
"n c green",
"m c #21FA06",
"M c #7E807D",
"N c #48E14C",
"B c #79E85E",
"V c #828481",
"C c #8E8988",
"Z c #8E908D",
"A c #939592",
"S c #979895",
"D c #A39E9D",
"F c #9EA09D",
"G c #9CA1A3",
"H c #B0B2AF",
"J c #ACB1B3",
"K c #B2B4B1",
"L c #B5B7B4",
"P c #B9B4B3",
"I c #B7B9B6",
"U c #B2B7BA",
"Y c #BBBDBA",
"T c #BFC2BE",
"R c #B9BEC0",
"E c #C1F6C2",
/* pixels */
"KLLIYTnnnnYILLKX",
"USDDDDDSGDDDDDCo",
"PGGJZi989eiCGSS*",
"RDDg9o+>:+%efGS%",
"UGh8O-kccz1*whG=",
"HDuO<4Eccc53*iC;",
"nf9@cEEcccNz<yCn",
"ng6>xcxcccNv>ifn",
"ns7>ccccxBmj,tMn",
"nM0@ccxcBmbx@iCn",
"JAu*35Bmmb53&pA*",
"LDMq$2llzx3%iVD%",
"UDDfr*-,,-&pVGZ*",
"LASFCauriydCDSCo",
"PCSSDGCSACSGCZC.",
"J*#*%;nnnn***oO "
};
