/* XPM */
static const char *top_level_unselected_open[] = {
/* columns rows colors chars-per-pixel */
"16 16 76 1",
"  c #040702",
". c #080100",
"X c #160104",
"o c #231F1E",
"O c #351A1B",
"+ c #3D1A1A",
"@ c #222421",
"# c #2A2625",
"$ c #282927",
"% c #24282A",
"& c #3F2827",
"* c #313331",
"= c #363735",
"- c #3E3A39",
"; c #3C3D3B",
": c #383C3E",
"> c #500203",
", c #5A0306",
"< c #551110",
"1 c #600102",
"2 c #660608",
"3 c #6B0C0D",
"4 c #730001",
"5 c #760E0E",
"6 c #760E13",
"7 c #691514",
"8 c #522A2B",
"9 c #4C3031",
"0 c #413D3C",
"q c #6F2120",
"w c #732D2F",
"e c #7F2E2D",
"r c #484947",
"t c #514C4B",
"y c #5C4B4D",
"u c #494E50",
"i c #545653",
"p c #595453",
"a c #50565C",
"s c #5B5D5A",
"d c #605C5A",
"f c #747673",
"g c #797473",
"h c #7D7877",
"j c #73777A",
"k c #757A7C",
"l c #81100E",
"z c #801A1B",
"x c #852024",
"c c #8D3734",
"v c #837E7D",
"b c green",
"n c #7E807D",
"m c #828481",
"M c #8E8988",
"N c #9C9E9B",
"B c #A39E9D",
"V c #9CA1A3",
"C c #A2A4A1",
"Z c #A6A8A5",
"A c #AAACA9",
"S c #ADAFAC",
"D c #B5AFAE",
"F c #ACB1B3",
"G c #B5B7B4",
"H c #B9B4B3",
"J c #BDB7B6",
"K c #B7B9B6",
"L c #B2B7BA",
"P c #BBBDBA",
"I c #C2BCBB",
"U c #BFC2BE",
"Y c #B9BEC0",
"T c #C5C7C4",
"R c #CAC5C3",
"E c #D0D2CF",
/* pixels */
"GKPUSTbbbbTTUPK$",
"HBBDHDVCBDDDDBB*",
"IVFFMa0--:aMFFV0",
"IDFk-0t&&.:-hHFr",
"YFv-09wqq>90:kDp",
"RFt:8xF77,x80uVs",
"bn:ycFF777ecy-vb",
"bf:8q773277z8:gb",
"bg-8q72232lz8=jb",
"bm-X1<,77451X=mb",
"EBr%+5,7l53+%tBd",
"RLv-%O>x6>+o:kLa",
"YDFh-@ && %-hHZt",
"YBFDMp::-0pMFDV;",
"JVBFLFAVBFFLFVN=",
"H*;ttdbbbbipt-*#"
};
