/* XPM */
static const char *tbTurrets[] = {
"45 15 256 3",
"000 c black",
"001 c #030202",
"002 c gray1",
"003 c #070605",
"004 c #060606",
"005 c #090909",
"006 c #0A0A09",
"007 c gray5",
"008 c #10100F",
"009 c #141313",
"010 c #171615",
"011 c #171716",
"012 c #1A1A19",
"013 c #1B1A19",
"014 c #1E1D1C",
"015 c #242322",
"016 c #272725",
"017 c #282725",
"018 c #2B2A28",
"019 c #2E2D2C",
"020 c #31302F",
"021 c #353332",
"022 c #353432",
"023 c #383735",
"024 c #3B3A38",
"025 c #42413E",
"026 c #4F4E4B",
"027 c #53514E",
"028 c #565451",
"029 c #595854",
"030 c #5D5B57",
"031 c #605E5A",
"032 c #63615E",
"033 c #676561",
"034 c #6A6864",
"035 c #716E6A",
"036 c #7A7773",
"037 c #7B7874",
"038 c #7E7B77",
"039 c #817F7A",
"040 c #82807B",
"041 c #85827D",
"042 c #888580",
"043 c #8B8983",
"044 c #8F8C86",
"045 c #989690",
"046 c #9C9993",
"047 c #9F9C96",
"048 c #ACA9A3",
"049 c #B6B3AC",
"050 c #C0BDB5",
"051 c #C7C3BC",
"052 c #CAC7BF",
"053 c #CECAC2",
"054 c #D4D0C8",
"055 c black",
"056 c black",
"057 c black",
"058 c black",
"059 c black",
"060 c black",
"061 c black",
"062 c black",
"063 c black",
"064 c black",
"065 c black",
"066 c black",
"067 c black",
"068 c black",
"069 c black",
"070 c black",
"071 c black",
"072 c black",
"073 c black",
"074 c black",
"075 c black",
"076 c black",
"077 c black",
"078 c black",
"079 c black",
"080 c black",
"081 c black",
"082 c black",
"083 c black",
"084 c black",
"085 c black",
"086 c black",
"087 c black",
"088 c black",
"089 c black",
"090 c black",
"091 c black",
"092 c black",
"093 c black",
"094 c black",
"095 c black",
"096 c black",
"097 c black",
"098 c black",
"099 c black",
"100 c black",
"101 c black",
"102 c black",
"103 c black",
"104 c black",
"105 c black",
"106 c black",
"107 c black",
"108 c black",
"109 c black",
"110 c black",
"111 c black",
"112 c black",
"113 c black",
"114 c black",
"115 c black",
"116 c black",
"117 c black",
"118 c black",
"119 c black",
"120 c black",
"121 c black",
"122 c black",
"123 c black",
"124 c black",
"125 c black",
"126 c black",
"127 c black",
"128 c black",
"129 c black",
"130 c black",
"131 c black",
"132 c black",
"133 c black",
"134 c black",
"135 c black",
"136 c black",
"137 c black",
"138 c black",
"139 c black",
"140 c black",
"141 c black",
"142 c black",
"143 c black",
"144 c black",
"145 c black",
"146 c black",
"147 c black",
"148 c black",
"149 c black",
"150 c black",
"151 c black",
"152 c black",
"153 c black",
"154 c black",
"155 c black",
"156 c black",
"157 c black",
"158 c black",
"159 c black",
"160 c black",
"161 c black",
"162 c black",
"163 c black",
"164 c black",
"165 c black",
"166 c black",
"167 c black",
"168 c black",
"169 c black",
"170 c black",
"171 c black",
"172 c black",
"173 c black",
"174 c black",
"175 c black",
"176 c black",
"177 c black",
"178 c black",
"179 c black",
"180 c black",
"181 c black",
"182 c black",
"183 c black",
"184 c black",
"185 c black",
"186 c black",
"187 c black",
"188 c black",
"189 c black",
"190 c black",
"191 c black",
"192 c black",
"193 c black",
"194 c black",
"195 c black",
"196 c black",
"197 c black",
"198 c black",
"199 c black",
"200 c black",
"201 c black",
"202 c black",
"203 c black",
"204 c black",
"205 c black",
"206 c black",
"207 c black",
"208 c black",
"209 c black",
"210 c black",
"211 c black",
"212 c black",
"213 c black",
"214 c black",
"215 c black",
"216 c black",
"217 c black",
"218 c black",
"219 c black",
"220 c black",
"221 c black",
"222 c black",
"223 c black",
"224 c black",
"225 c black",
"226 c black",
"227 c black",
"228 c black",
"229 c black",
"230 c black",
"231 c black",
"232 c black",
"233 c black",
"234 c black",
"235 c black",
"236 c black",
"237 c black",
"238 c black",
"239 c black",
"240 c black",
"241 c black",
"242 c black",
"243 c black",
"244 c black",
"245 c black",
"246 c black",
"247 c black",
"248 c black",
"249 c black",
"250 c black",
"251 c black",
"252 c black",
"253 c black",
"254 c black",
"255 c black",
"054054054054054054054054054054054054054054054054054054054054054054054054054054054054054054054054054054054054054054054054054054054054054",
"054054054054054054054054054054054054054054054054054054054054054054054054054054054054054054054054054054054054054054054054054054054054054",
"054054054054054054054054047034034034034034034034048054054054054054054054054054054054054054054054054054054054054054054047034048054054054",
"054054054054054054054054034000000000007000000000041054054054054054054054054054054054054054054054054054054054054054054034007041054054054",
"054054054054054054054054047034034021013025034026028048054047034048047034048047032040034048047032048054043030039053047022013025034048054",
"054054054010000000015049054054054034013041054034007041054034007041034007018002000025007018002000041024000000000019034000013000000041054",
"054054038000000000000000054054054034013041054034013041054034013041034014003028034028014003028034036000000000000000037021013025034048054",
"054054029000000000000000054054054034013041054034013041054034013041034013039054054034013039054054031000000000000000041034013041054054054",
"054054041000000000000000054054054034013041054034011038054033013041034013041054054034013041054054031006018034034020041034013039054054054",
"054054054012000000016049054054054034013041054043004017028003013041034013041054054034013041054054045001008029023000041042000019034048054",
"054054054051041031053054054054054034007041054050005005000000007041034007041054054034007041054054054027000000000000044052009000000041054",
"054054054054054054054054054054054047034048054054049034034041034048047034048054054047034048054054054054046032041053054054049032035049054",
"054054054054054054054054054054054054054054054054054054054054054054054054054054054054054054054054054054054054054054054054054054054054054",
"054054054054054054054054054054054054054054054054054054054054054054054054054054054054054054054054054054054054054054054054054054054054054",
"054054054054054054054054054054054054054054054054054054054054054054054054054054054054054054054054054054054054054054054054054054054054054"
};
