/* XPM */
static const char *undo[] = {
/* columns rows colors chars-per-pixel */
"21 20 2 1",
"  c black",
". c #D4D0C8",
/* pixels */
".....................",
".....................",
".....................",
".....................",
".........     .......",
"........ ..... ......",
".... .. ....... .....",
"....   ......... ....",
"....   ......... ....",
"....    ........ ....",
"............... .....",
".............. ......",
"............. .......",
".....................",
"....        . . . ...",
".....................",
".....................",
".....................",
".....................",
"....................."
};
