/* XPM */
static const char *tbXleft[] = {
"23 21 256 3",
"000 c #800000",
"001 c #800101",
"002 c #810101",
"003 c #810303",
"004 c #830303",
"005 c #810404",
"006 c #820606",
"007 c #850505",
"008 c #840606",
"009 c #860707",
"010 c #830909",
"011 c #870909",
"012 c #840D0C",
"013 c #850D0C",
"014 c #890C0B",
"015 c #890D0D",
"016 c #86100F",
"017 c #871312",
"018 c #891615",
"019 c #891817",
"020 c #8A1A19",
"021 c #8B1C1B",
"022 c #8B1D1C",
"023 c #8D201F",
"024 c #8F2725",
"025 c #932725",
"026 c #912A28",
"027 c #922D2B",
"028 c #972928",
"029 c #972A28",
"030 c #962C2B",
"031 c #93302F",
"032 c #953432",
"033 c #993D3B",
"034 c #9D3C3A",
"035 c #A0423F",
"036 c #9B4240",
"037 c #9B4441",
"038 c #9C4643",
"039 c #9F4441",
"040 c #9C4745",
"041 c #9E4B48",
"042 c #9F4E4B",
"043 c #A04845",
"044 c #A04F4C",
"045 c #A0514E",
"046 c #A25451",
"047 c #A25653",
"048 c #A75855",
"049 c #A65C58",
"050 c #A65E5A",
"051 c #A7615E",
"052 c #A86561",
"053 c #AA6561",
"054 c #AA6864",
"055 c #AB6B67",
"056 c #AD6B67",
"057 c #AF7570",
"058 c #B07772",
"059 c #B27B77",
"060 c #B37F7A",
"061 c #B4807B",
"062 c #B5807B",
"063 c #B4827D",
"064 c #B68580",
"065 c #B78782",
"066 c #B68983",
"067 c #B78983",
"068 c #B88C86",
"069 c #B98F8A",
"070 c #BB928D",
"071 c #BC9690",
"072 c #BF9C96",
"073 c #C09F99",
"074 c #C1A39C",
"075 c #C4A9A3",
"076 c #C5ACA6",
"077 c #C7B0A9",
"078 c #C8B3AC",
"079 c #C9B6AF",
"080 c #CBB9B2",
"081 c #CCBDB5",
"082 c #CDC0B9",
"083 c #CFC3BC",
"084 c #D0C7BF",
"085 c #D1CAC2",
"086 c #D3CDC5",
"087 c #D4D0C8",
"088 c black",
"089 c black",
"090 c black",
"091 c black",
"092 c black",
"093 c black",
"094 c black",
"095 c black",
"096 c black",
"097 c black",
"098 c black",
"099 c black",
"100 c black",
"101 c black",
"102 c black",
"103 c black",
"104 c black",
"105 c black",
"106 c black",
"107 c black",
"108 c black",
"109 c black",
"110 c black",
"111 c black",
"112 c black",
"113 c black",
"114 c black",
"115 c black",
"116 c black",
"117 c black",
"118 c black",
"119 c black",
"120 c black",
"121 c black",
"122 c black",
"123 c black",
"124 c black",
"125 c black",
"126 c black",
"127 c black",
"128 c black",
"129 c black",
"130 c black",
"131 c black",
"132 c black",
"133 c black",
"134 c black",
"135 c black",
"136 c black",
"137 c black",
"138 c black",
"139 c black",
"140 c black",
"141 c black",
"142 c black",
"143 c black",
"144 c black",
"145 c black",
"146 c black",
"147 c black",
"148 c black",
"149 c black",
"150 c black",
"151 c black",
"152 c black",
"153 c black",
"154 c black",
"155 c black",
"156 c black",
"157 c black",
"158 c black",
"159 c black",
"160 c black",
"161 c black",
"162 c black",
"163 c black",
"164 c black",
"165 c black",
"166 c black",
"167 c black",
"168 c black",
"169 c black",
"170 c black",
"171 c black",
"172 c black",
"173 c black",
"174 c black",
"175 c black",
"176 c black",
"177 c black",
"178 c black",
"179 c black",
"180 c black",
"181 c black",
"182 c black",
"183 c black",
"184 c black",
"185 c black",
"186 c black",
"187 c black",
"188 c black",
"189 c black",
"190 c black",
"191 c black",
"192 c black",
"193 c black",
"194 c black",
"195 c black",
"196 c black",
"197 c black",
"198 c black",
"199 c black",
"200 c black",
"201 c black",
"202 c black",
"203 c black",
"204 c black",
"205 c black",
"206 c black",
"207 c black",
"208 c black",
"209 c black",
"210 c black",
"211 c black",
"212 c black",
"213 c black",
"214 c black",
"215 c black",
"216 c black",
"217 c black",
"218 c black",
"219 c black",
"220 c black",
"221 c black",
"222 c black",
"223 c black",
"224 c black",
"225 c black",
"226 c black",
"227 c black",
"228 c black",
"229 c black",
"230 c black",
"231 c black",
"232 c black",
"233 c black",
"234 c black",
"235 c black",
"236 c black",
"237 c black",
"238 c black",
"239 c black",
"240 c black",
"241 c black",
"242 c black",
"243 c black",
"244 c black",
"245 c black",
"246 c black",
"247 c black",
"248 c black",
"249 c black",
"250 c black",
"251 c black",
"252 c black",
"253 c black",
"254 c black",
"255 c black",
"087087087087087087087087081067054042054063079087087087087087087087087",
"087087087087087087069031000000000000000000000024063086087087087087087",
"087087087087079027000000000023042054045026000000000019046054054054072",
"087087087073013000020063081087087087087087083068021000000000000000054",
"087087073010000040084087087087087087087087087087061000000001038054072",
"087084018000042087064054057087087087086055054070063000032000010079087",
"087050000024087087076007000062087087053000014081063000054033000037087",
"086016000071087087087064000009082076002002072087063000054077000003082",
"074000017087087087087087048000034025000058087087073042069087027000067",
"063000040087087087087087086028000000039087087087087087087087051000054",
"054000051087087087087087086030000000035087087087087087087087059000042",
"063000040087087087087087049000043029000058087087087087087087051000052",
"074000017087075054072064000011083078004002072087087087087087027000064",
"086016000071063000047008000065087087056000015081087087087077000003082",
"087050000024063000036054057087087087086055054070087087087033000037087",
"087084018000031000054087087087087087087087087087087087054000010079087",
"072054044005000000051087087087087087087087087087085046000003068087087",
"054000000000003000012057081087087087087087083060022000006068087087087",
"072054054054066027000000000023041052042024000000000023075087087087087",
"087087087087087087069031000000000000000000000024063086087087087087087",
"087087087087087087087087082067054042054063080087087087087087087087087"
};
