/* XPM */
static const char *XY_plane[] = {
/* columns rows colors chars-per-pixel */
"24 24 11 1",
"  c #000100",
". c #077C20",
"X c #3CB553",
"o c #0072FF",
"O c #828481",
"+ c #828084",
"@ c #9AAEB9",
"# c #A0B7D6",
"$ c #D4D0C8",
"% c #CBDBEE",
"& c #C8F1FF",
/* pixels */
"$$$$$$$$$$$$$$$$$$$$$$$$",
"$$$$$$$$$$$$$$$$$$$$$$$$",
"$$$$$$$$$$$           $$",
"$$$$$$$$$$  $$$$$$$$  $$",
"$$$$$$$$$ $O$$$$$$$ $ $$",
"$$$$$$$$ $$+$$$$$$ $$ $$",
"$$$$$$$ $$$O$$$$$ $$$ $$",
"$$ooooooooooooooo$$$$ $$",
"$$o##.#####X###.o$$$$ $$",
"$$o#...........#o$$$$ $$",
"$$o#.######X##.#o$$$$ $$",
"$$o#.######X##.#o$$$$ $$",
"$$o#.######XXX.XoOOOO $$",
"$$o#.#####X###.#o$$$ $$$",
"$$o#.####X####.#o$$ $$$$",
"$$o#.###X#####.#o$ $$$$$",
"$$o#.#@X######.#o $$$$$$",
"$$o#.#X#######.#o$$$$$$$",
"$$o#.X########.Xo$$$$$$$",
"$$o#...........#o$$$$$$$",
"$$o#############o$$$$$$$",
"$$o%&%&%&%%%%%%%o$$$$$$$",
"$$$$$$$$$$$$$$$$$$$$$$$$",
"$$$$$$$$$$$$$$$$$$$$$$$$"
};
