/* XPM */
static const char *YZ_plane[] = {
/* columns rows colors chars-per-pixel */
"24 24 10 1",
"  c #000100",
". c #077C20",
"X c #3CB553",
"o c #0072FF",
"O c #828481",
"+ c #828084",
"@ c #9AAEB9",
"# c #A0B7D6",
"$ c #D4D0C8",
"% c #CBDBEE",
/* pixels */
"$$$$$$$$$$$$$$$$$$$$o$$$",
"$$$$$$$$$$$$$$$$$$$o#$$$",
"$$$$$$$$$$$$$$$$$$o##$$$",
"$$$$$$$$$        o..#$$$",
"$$$$$$$$ O$$$$$$o#..#$$$",
"$$$$$$$ $+$$$$$o#.#.#$$$",
"$$$$$$ $$O$$$$o#.##.#$$$",
"$$$$$ $$$+$$$o#.###.#$$$",
"$$$$ $$$$O$$o#.####.#$$$",
"$$$ $$$$$+$o#.#####.#$$$",
"$$        o..######.#$$$",
"$$ $$$$$$Oo#.######.#$$$",
"$$ $$$$$$+o#.######.#$$$",
"$$ $$$$$$OoX.XXXXXX.#$$$",
"$$ $$$$$+$o#.#####.##$$$",
"$$ $$$$+$$o#.#@##.#%$$$$",
"$$ $$$O$$$o#.###.#%$$$$$",
"$$ $$O$$$$o#.##.#%$$$$$$",
"$$ $+$$$$$o#.#.#%$$$$$$$",
"$$ O$$$$$$o#..#%$$$$$$$$",
"$$        o..#%$$$$$$$$$",
"$$$$$$$$$$o##%$$$$$$$$$$",
"$$$$$$$$$$o#%$$$$$$$$$$$",
"$$$$$$$$$$o%$$$$$$$$$$$$"
};
